<?xml version="1.0" encoding="UTF-8"?><svg id="d" xmlns="http://www.w3.org/2000/svg" xmlns:xlink="http://www.w3.org/1999/xlink" viewBox="0 0 681.23 404.31"><defs><style>.r{fill:url(#p);}.s{fill:#50e6ff;}.t,.u{fill:#fff;}.v{fill:rgba(255,255,255,.2);}.v,.w,.x,.y,.z,.aa{fill-rule:evenodd;}.w{fill:#804998;}.ab,.ac,.ad,.u,.ae,.af,.ag,.ah{stroke-miterlimit:10;}.ab,.ac,.ad,.ae,.af,.ag,.ah{fill:none;}.ab,.ad,.af,.ag,.ah{stroke:#999;stroke-width:5px;}.ac{stroke-width:2.12px;}.ac,.u,.ae{stroke:#000;}.x{fill:rgba(98,17,122,.15);}.ai{fill:url(#q);}.y{fill:#59b4d9;}.aj{fill:#53b1e0;}.ad{stroke-dasharray:0 0 19.42 19.42;}.u{stroke-width:2.96px;}.ae{stroke-linecap:round;stroke-width:2px;}.ak{fill:url(#n);}.al{fill:#9cebff;}.af{stroke-dasharray:0 0 17.77 17.77;}.ag{stroke-dasharray:0 0 19.28 19.28;}.z{fill:#68217a;}.aa{fill:#3999c6;}.am{fill:url(#o);}.ah{stroke-dasharray:0 0 19.25 19.25;}.an{fill:#ccc;}</style><linearGradient id="n" x1="280.53" y1="1282.36" x2="267.84" y2="1306.41" gradientTransform="translate(0 1387.23) scale(1 -1)" gradientUnits="userSpaceOnUse"><stop offset="0" stop-color="#1988d9"/><stop offset=".9" stop-color="#54aef0"/></linearGradient><linearGradient id="o" x1="275.06" y1="1289.35" x2="283.84" y2="1274.22" gradientTransform="translate(0 1387.23) scale(1 -1)" gradientUnits="userSpaceOnUse"><stop offset=".1" stop-color="#54aef0"/><stop offset=".29" stop-color="#4fabee"/><stop offset=".51" stop-color="#41a2e9"/><stop offset=".74" stop-color="#2a93e0"/><stop offset=".88" stop-color="#1988d9"/></linearGradient><linearGradient id="p" x1="623.91" y1="1279.59" x2="611.22" y2="1303.64" xlink:href="#n"/><linearGradient id="q" x1="618.45" y1="1286.58" x2="627.22" y2="1271.45" xlink:href="#o"/></defs><rect class="t" width="681.23" height="404.31"/><g><rect class="an" x="8.31" y="8.31" width="307.38" height="384.92"/><g><polyline class="ab" points="315.69 383.91 315.69 393.23 306.37 393.23"/><line class="ah" x1="287.12" y1="393.23" x2="27.26" y2="393.23"/><polyline class="ab" points="17.63 393.23 8.31 393.23 8.31 383.91"/><line class="ag" x1="8.31" y1="364.63" x2="8.31" y2="27.27"/><polyline class="ab" points="8.31 17.63 8.31 8.31 17.63 8.31"/><line class="ah" x1="36.88" y1="8.31" x2="296.74" y2="8.31"/><polyline class="ab" points="306.37 8.31 315.69 8.31 315.69 17.63"/><line class="ag" x1="315.69" y1="36.91" x2="315.69" y2="374.27"/></g></g><g><rect class="an" x="387.69" y="8.31" width="285.23" height="387.69"/><g><polyline class="ab" points="672.92 17.63 672.92 8.31 663.6 8.31"/><line class="af" x1="645.83" y1="8.31" x2="405.9" y2="8.31"/><polyline class="ab" points="397.02 8.31 387.69 8.31 387.69 17.63"/><line class="ad" x1="387.69" y1="37.05" x2="387.69" y2="376.96"/><polyline class="ab" points="387.69 386.68 387.69 396 397.02 396"/><line class="af" x1="414.79" y1="396" x2="654.71" y2="396"/><polyline class="ab" points="663.6 396 672.92 396 672.92 386.68"/><line class="ad" x1="672.92" y1="367.25" x2="672.92" y2="27.34"/></g></g><ellipse class="u" cx="531.69" cy="253.38" rx="72" ry="20.77"/><path class="u" d="m603.69,307.38c0,11.47-32.24,20.77-72,20.77s-72-9.3-72-20.77v-55.38c0,11.47,32.24,20.77,72,20.77s72-9.3,72-20.77v55.38Z"/><g><path d="m470.63,289.21c1.11-.17,2.44-.29,3.88-.29,2.62,0,4.49.61,5.73,1.76,1.26,1.15,1.99,2.79,1.99,5.08s-.71,4.2-2.04,5.5c-1.32,1.32-3.51,2.04-6.26,2.04-1.3,0-2.39-.06-3.32-.17v-13.92Zm1.83,12.51c.46.08,1.13.1,1.85.1,3.91,0,6.03-2.18,6.03-6,.02-3.34-1.87-5.46-5.73-5.46-.94,0-1.66.08-2.14.19v11.17Z"/><path d="m490.18,303.18l-.15-1.28h-.06c-.57.8-1.66,1.51-3.11,1.51-2.06,0-3.11-1.45-3.11-2.92,0-2.46,2.18-3.8,6.11-3.78v-.21c0-.84-.23-2.35-2.31-2.35-.94,0-1.93.29-2.65.76l-.42-1.22c.84-.55,2.06-.9,3.34-.9,3.11,0,3.86,2.12,3.86,4.16v3.8c0,.88.04,1.74.17,2.44h-1.68Zm-.27-5.19c-2.02-.04-4.3.31-4.3,2.29,0,1.2.8,1.76,1.74,1.76,1.32,0,2.16-.84,2.46-1.7.06-.19.1-.4.1-.59v-1.76Z"/><path d="m496.81,290.1v2.92h2.65v1.41h-2.65v5.48c0,1.26.36,1.97,1.39,1.97.48,0,.84-.06,1.07-.13l.08,1.39c-.36.15-.92.25-1.64.25-.86,0-1.55-.27-1.99-.78-.53-.55-.71-1.45-.71-2.65v-5.54h-1.58v-1.41h1.58v-2.44l1.81-.48Z"/><path d="m507.16,303.18l-.15-1.28h-.06c-.57.8-1.66,1.51-3.11,1.51-2.06,0-3.11-1.45-3.11-2.92,0-2.46,2.18-3.8,6.11-3.78v-.21c0-.84-.23-2.35-2.31-2.35-.95,0-1.93.29-2.65.76l-.42-1.22c.84-.55,2.06-.9,3.34-.9,3.11,0,3.86,2.12,3.86,4.16v3.8c0,.88.04,1.74.17,2.44h-1.68Zm-.27-5.19c-2.02-.04-4.3.31-4.3,2.29,0,1.2.8,1.76,1.74,1.76,1.32,0,2.16-.84,2.46-1.7.06-.19.11-.4.11-.59v-1.76Z"/><path d="m516.17,289.21c.92-.19,2.25-.29,3.51-.29,1.95,0,3.21.36,4.09,1.15.71.63,1.11,1.6,1.11,2.69,0,1.87-1.18,3.11-2.67,3.61v.06c1.09.38,1.74,1.39,2.08,2.86.46,1.97.8,3.34,1.09,3.88h-1.89c-.23-.4-.55-1.62-.95-3.38-.42-1.95-1.18-2.69-2.83-2.75h-1.72v6.13h-1.83v-13.96Zm1.83,6.45h1.87c1.95,0,3.19-1.07,3.19-2.69,0-1.83-1.32-2.62-3.25-2.65-.88,0-1.51.08-1.81.17v5.17Z"/><path d="m528.52,298.43c.04,2.5,1.64,3.53,3.49,3.53,1.32,0,2.12-.23,2.81-.52l.32,1.32c-.65.29-1.76.63-3.38.63-3.13,0-5-2.06-5-5.12s1.81-5.48,4.77-5.48c3.32,0,4.2,2.92,4.2,4.79,0,.38-.04.67-.06.86h-7.14Zm5.42-1.32c.02-1.18-.48-3-2.56-3-1.87,0-2.69,1.72-2.83,3h5.4Z"/><path d="m537.76,301.29c.55.36,1.51.73,2.44.73,1.34,0,1.97-.67,1.97-1.51,0-.88-.52-1.36-1.89-1.87-1.83-.65-2.69-1.66-2.69-2.88,0-1.64,1.32-2.98,3.51-2.98,1.03,0,1.93.29,2.5.63l-.46,1.34c-.4-.25-1.13-.59-2.08-.59-1.09,0-1.7.63-1.7,1.39,0,.84.61,1.22,1.93,1.72,1.76.67,2.67,1.55,2.67,3.07,0,1.78-1.39,3.04-3.8,3.04-1.11,0-2.14-.27-2.86-.69l.46-1.41Z"/><path d="m555.53,298.01c0,3.76-2.6,5.4-5.06,5.4-2.75,0-4.87-2.02-4.87-5.23,0-3.4,2.23-5.4,5.04-5.4s4.89,2.12,4.89,5.23Zm-8.06.1c0,2.23,1.28,3.91,3.09,3.91s3.09-1.66,3.09-3.95c0-1.72-.86-3.91-3.04-3.91s-3.13,2.02-3.13,3.95Z"/><path d="m566.36,300.41c0,1.05.02,1.97.08,2.77h-1.64l-.11-1.66h-.04c-.48.82-1.55,1.89-3.36,1.89-1.6,0-3.51-.88-3.51-4.45v-5.94h1.85v5.63c0,1.93.59,3.23,2.27,3.23,1.24,0,2.1-.86,2.44-1.68.1-.27.17-.61.17-.94v-6.24h1.85v7.39Z"/><path d="m569.43,296.19c0-1.2-.02-2.23-.08-3.17h1.62l.06,1.99h.08c.46-1.36,1.57-2.23,2.81-2.23.21,0,.36.02.52.06v1.74c-.19-.04-.38-.06-.63-.06-1.3,0-2.23.99-2.48,2.37-.04.25-.08.55-.08.86v5.42h-1.83v-6.99Z"/><path d="m583.33,302.8c-.48.25-1.55.59-2.92.59-3.07,0-5.06-2.08-5.06-5.19s2.14-5.4,5.46-5.4c1.09,0,2.06.27,2.56.52l-.42,1.43c-.44-.25-1.13-.48-2.14-.48-2.33,0-3.59,1.72-3.59,3.84,0,2.35,1.51,3.8,3.53,3.8,1.05,0,1.74-.27,2.27-.5l.32,1.39Z"/><path d="m586.4,298.43c.04,2.5,1.64,3.53,3.49,3.53,1.32,0,2.12-.23,2.81-.52l.31,1.32c-.65.29-1.76.63-3.38.63-3.13,0-5-2.06-5-5.12s1.81-5.48,4.77-5.48c3.32,0,4.2,2.92,4.2,4.79,0,.38-.04.67-.06.86h-7.14Zm5.42-1.32c.02-1.18-.48-3-2.56-3-1.87,0-2.69,1.72-2.83,3h5.4Z"/></g><g><line class="ac" x1="359.27" y1="282.46" x2="459.69" y2="282.46"/><path d="m359.67,290.44c-4.4,0-7.98-3.57-7.98-7.98s3.57-7.98,7.98-7.98,7.98,3.57,7.98,7.98-3.57,7.98-7.98,7.98Z"/></g><g><path d="m130.95,371.15c-.67.34-2.02.67-3.74.67-3.99,0-6.99-2.52-6.99-7.16s3-7.43,7.39-7.43c1.76,0,2.88.38,3.36.63l-.44,1.49c-.69-.34-1.68-.59-2.86-.59-3.32,0-5.52,2.12-5.52,5.84,0,3.46,1.99,5.69,5.44,5.69,1.11,0,2.25-.23,2.98-.59l.38,1.45Z"/><path d="m141.43,368.84c0,1.05.02,1.97.08,2.77h-1.64l-.11-1.66h-.04c-.48.82-1.55,1.89-3.36,1.89-1.6,0-3.51-.88-3.51-4.45v-5.94h1.85v5.63c0,1.93.59,3.23,2.27,3.23,1.24,0,2.1-.86,2.44-1.68.1-.27.17-.61.17-.94v-6.24h1.85v7.39Z"/><path d="m144.24,369.72c.55.36,1.51.73,2.44.73,1.34,0,1.97-.67,1.97-1.51,0-.88-.52-1.36-1.89-1.87-1.83-.65-2.69-1.66-2.69-2.88,0-1.64,1.32-2.98,3.51-2.98,1.03,0,1.93.29,2.5.63l-.46,1.34c-.4-.25-1.13-.59-2.08-.59-1.09,0-1.7.63-1.7,1.39,0,.84.61,1.22,1.93,1.72,1.76.67,2.67,1.55,2.67,3.07,0,1.78-1.38,3.04-3.8,3.04-1.11,0-2.14-.27-2.86-.69l.46-1.41Z"/><path d="m155.04,358.53v2.92h2.65v1.41h-2.65v5.48c0,1.26.36,1.97,1.39,1.97.48,0,.84-.06,1.07-.13l.08,1.39c-.36.15-.92.25-1.64.25-.86,0-1.55-.27-2-.78-.52-.55-.71-1.45-.71-2.65v-5.54h-1.58v-1.41h1.58v-2.44l1.8-.48Z"/><path d="m168.83,366.44c0,3.76-2.6,5.4-5.06,5.4-2.75,0-4.87-2.02-4.87-5.23,0-3.4,2.22-5.4,5.04-5.4s4.89,2.12,4.89,5.23Zm-8.06.1c0,2.23,1.28,3.91,3.09,3.91s3.09-1.66,3.09-3.95c0-1.72-.86-3.91-3.04-3.91s-3.13,2.02-3.13,3.95Z"/><path d="m171.17,364.2c0-1.05-.02-1.91-.08-2.75h1.62l.08,1.64h.06c.57-.97,1.51-1.87,3.19-1.87,1.38,0,2.44.84,2.88,2.04h.04c.31-.57.71-1.01,1.13-1.32.61-.46,1.28-.71,2.25-.71,1.34,0,3.34.88,3.34,4.41v5.98h-1.81v-5.75c0-1.95-.71-3.13-2.2-3.13-1.05,0-1.87.78-2.18,1.68-.08.25-.15.59-.15.92v6.28h-1.81v-6.09c0-1.62-.71-2.79-2.12-2.79-1.15,0-1.99.92-2.29,1.85-.1.27-.15.59-.15.9v6.13h-1.8v-7.41Z"/><path d="m189.71,366.86c.04,2.5,1.64,3.53,3.48,3.53,1.32,0,2.12-.23,2.81-.52l.31,1.32c-.65.29-1.76.63-3.38.63-3.13,0-5-2.06-5-5.12s1.8-5.48,4.77-5.48c3.32,0,4.2,2.92,4.2,4.79,0,.38-.04.67-.06.86h-7.14Zm5.42-1.32c.02-1.18-.48-3-2.56-3-1.87,0-2.69,1.72-2.83,3h5.4Z"/><path d="m199.2,364.62c0-1.2-.02-2.23-.08-3.17h1.62l.06,1.99h.08c.46-1.36,1.57-2.23,2.81-2.23.21,0,.36.02.53.06v1.74c-.19-.04-.38-.06-.63-.06-1.3,0-2.23.99-2.48,2.37-.04.25-.08.55-.08.86v5.42h-1.83v-6.99Z"/></g><g><path d="m469.5,360.39c.88-.15,2.04-.27,3.51-.27,1.81,0,3.13.42,3.97,1.18.78.67,1.24,1.7,1.24,2.96s-.38,2.29-1.09,3.02c-.97,1.03-2.54,1.55-4.33,1.55-.55,0-1.05-.02-1.47-.13v5.67h-1.83v-13.98Zm1.83,6.82c.4.1.9.15,1.51.15,2.2,0,3.55-1.07,3.55-3.02s-1.32-2.77-3.34-2.77c-.8,0-1.41.06-1.72.15v5.5Z"/><path d="m488.8,371.61c0,1.05.02,1.97.08,2.77h-1.64l-.11-1.66h-.04c-.48.82-1.55,1.89-3.36,1.89-1.6,0-3.51-.88-3.51-4.45v-5.94h1.85v5.63c0,1.93.59,3.23,2.27,3.23,1.24,0,2.1-.86,2.44-1.68.1-.27.17-.61.17-.94v-6.24h1.85v7.39Z"/><path d="m491.78,374.38c.04-.69.08-1.72.08-2.62v-12.28h1.83v6.38h.04c.65-1.13,1.83-1.87,3.46-1.87,2.52,0,4.3,2.1,4.28,5.19,0,3.63-2.29,5.44-4.56,5.44-1.47,0-2.65-.57-3.4-1.91h-.06l-.08,1.68h-1.6Zm1.91-4.07c0,.23.04.46.08.67.36,1.28,1.43,2.16,2.77,2.16,1.93,0,3.09-1.57,3.09-3.91,0-2.04-1.05-3.78-3.02-3.78-1.26,0-2.44.86-2.81,2.27-.04.21-.11.46-.11.76v1.83Z"/><path d="m503.82,359.47h1.85v14.91h-1.85v-14.91Z"/><path d="m510.83,361.36c.02.63-.44,1.13-1.18,1.13-.65,0-1.11-.5-1.11-1.13s.48-1.15,1.15-1.15,1.13.5,1.13,1.15Zm-2.06,13.02v-10.16h1.85v10.16h-1.85Z"/><path d="m513.43,372.49c.55.36,1.51.73,2.44.73,1.34,0,1.97-.67,1.97-1.51,0-.88-.52-1.36-1.89-1.87-1.83-.65-2.69-1.66-2.69-2.88,0-1.64,1.32-2.98,3.51-2.98,1.03,0,1.93.29,2.5.63l-.46,1.34c-.4-.25-1.13-.59-2.08-.59-1.09,0-1.7.63-1.7,1.39,0,.84.61,1.22,1.93,1.72,1.76.67,2.67,1.55,2.67,3.07,0,1.78-1.39,3.04-3.8,3.04-1.11,0-2.14-.27-2.86-.69l.46-1.41Z"/><path d="m522,359.47h1.85v6.34h.04c.29-.52.76-.99,1.32-1.3.55-.31,1.2-.52,1.89-.52,1.37,0,3.55.84,3.55,4.35v6.05h-1.85v-5.84c0-1.64-.61-3.02-2.35-3.02-1.2,0-2.14.84-2.48,1.85-.11.25-.13.52-.13.88v6.13h-1.85v-14.91Z"/><path d="m534.69,369.63c.04,2.5,1.64,3.53,3.49,3.53,1.32,0,2.12-.23,2.81-.52l.31,1.32c-.65.29-1.76.63-3.38.63-3.13,0-5-2.06-5-5.12s1.81-5.48,4.77-5.48c3.32,0,4.2,2.92,4.2,4.79,0,.38-.04.67-.06.86h-7.14Zm5.42-1.32c.02-1.18-.48-3-2.56-3-1.87,0-2.69,1.72-2.83,3h5.4Z"/><path d="m544.18,367.39c0-1.2-.02-2.23-.08-3.17h1.62l.06,1.99h.08c.46-1.36,1.57-2.23,2.81-2.23.21,0,.36.02.52.06v1.74c-.19-.04-.38-.06-.63-.06-1.3,0-2.23.99-2.48,2.37-.04.25-.08.55-.08.86v5.42h-1.83v-6.99Z"/><path d="m553.94,375.22l5.86-15.22h1.43l-5.88,15.22h-1.41Z"/><path d="m569.04,360.23v14.15h-1.83v-14.15h1.83Z"/><path d="m571.98,372.15c.82.5,2.02.92,3.28.92,1.87,0,2.96-.99,2.96-2.41,0-1.32-.76-2.08-2.67-2.81-2.31-.82-3.74-2.02-3.74-4.01,0-2.2,1.83-3.84,4.58-3.84,1.45,0,2.5.34,3.13.69l-.5,1.49c-.46-.25-1.41-.67-2.69-.67-1.93,0-2.67,1.15-2.67,2.12,0,1.32.86,1.97,2.81,2.73,2.39.92,3.61,2.08,3.61,4.16,0,2.18-1.62,4.07-4.96,4.07-1.37,0-2.86-.4-3.61-.9l.46-1.53Z"/><path d="m585.69,374.38l-4.62-14.15h1.97l2.21,6.97c.61,1.91,1.13,3.63,1.51,5.29h.04c.4-1.64.99-3.42,1.62-5.27l2.39-6.99h1.95l-5.06,14.15h-2.02Z"/></g><g><rect class="t" x="27.69" y="181.28" width="269.91" height="149.35"/><path d="m296.12,182.76v146.4H29.17v-146.4h266.95m2.96-2.96H26.21v152.31h272.86v-152.31h0Z"/></g><g><path d="m134.66,197.52c-.1-1.97-.23-4.35-.21-6.11h-.06c-.48,1.66-1.07,3.42-1.79,5.38l-2.5,6.87h-1.39l-2.29-6.74c-.67-1.99-1.24-3.82-1.64-5.5h-.04c-.04,1.76-.15,4.14-.27,6.26l-.38,6.07h-1.74l.99-14.15h2.33l2.42,6.84c.59,1.74,1.07,3.3,1.43,4.77h.06c.36-1.43.86-2.98,1.49-4.77l2.52-6.84h2.33l.88,14.15h-1.78l-.36-6.21Z"/><path d="m145.31,203.73l-.15-1.28h-.06c-.57.8-1.66,1.51-3.11,1.51-2.06,0-3.11-1.45-3.11-2.92,0-2.46,2.18-3.8,6.11-3.78v-.21c0-.84-.23-2.35-2.31-2.35-.94,0-1.93.29-2.65.76l-.42-1.22c.84-.55,2.06-.9,3.34-.9,3.11,0,3.86,2.12,3.86,4.16v3.8c0,.88.04,1.74.17,2.44h-1.68Zm-.27-5.19c-2.02-.04-4.3.31-4.3,2.29,0,1.2.8,1.76,1.74,1.76,1.32,0,2.16-.84,2.46-1.7.06-.19.1-.4.1-.59v-1.76Z"/><path d="m149.8,196.32c0-1.05-.02-1.91-.08-2.75h1.64l.1,1.68h.04c.5-.97,1.68-1.91,3.36-1.91,1.41,0,3.59.84,3.59,4.33v6.07h-1.85v-5.86c0-1.64-.61-3-2.35-3-1.22,0-2.16.86-2.48,1.89-.08.23-.13.55-.13.86v6.11h-1.85v-7.41Z"/><path d="m167.08,203.73l-.15-1.28h-.06c-.57.8-1.66,1.51-3.11,1.51-2.06,0-3.11-1.45-3.11-2.92,0-2.46,2.18-3.8,6.11-3.78v-.21c0-.84-.23-2.35-2.31-2.35-.95,0-1.93.29-2.65.76l-.42-1.22c.84-.55,2.06-.9,3.34-.9,3.11,0,3.86,2.12,3.86,4.16v3.8c0,.88.04,1.74.17,2.44h-1.68Zm-.27-5.19c-2.02-.04-4.3.31-4.3,2.29,0,1.2.8,1.76,1.74,1.76,1.32,0,2.16-.84,2.46-1.7.06-.19.11-.4.11-.59v-1.76Z"/><path d="m180.34,193.57c-.04.73-.08,1.55-.08,2.79v5.9c0,2.33-.46,3.76-1.45,4.64-.99.92-2.41,1.22-3.7,1.22s-2.56-.29-3.38-.84l.46-1.41c.67.42,1.72.8,2.98.8,1.89,0,3.28-.99,3.28-3.55v-1.13h-.04c-.57.94-1.66,1.7-3.23,1.7-2.52,0-4.33-2.14-4.33-4.96,0-3.44,2.25-5.4,4.58-5.4,1.76,0,2.73.92,3.17,1.76h.04l.08-1.53h1.62Zm-1.91,4.01c0-.31-.02-.59-.1-.84-.34-1.07-1.24-1.95-2.58-1.95-1.76,0-3.02,1.49-3.02,3.84,0,1.99,1.01,3.65,3,3.65,1.13,0,2.16-.71,2.56-1.89.1-.31.15-.67.15-.99v-1.83Z"/><path d="m184.35,198.99c.04,2.5,1.64,3.53,3.49,3.53,1.32,0,2.12-.23,2.81-.52l.32,1.32c-.65.29-1.76.63-3.38.63-3.13,0-5-2.06-5-5.12s1.81-5.48,4.77-5.48c3.32,0,4.2,2.92,4.2,4.79,0,.38-.04.67-.06.86h-7.14Zm5.42-1.32c.02-1.18-.48-3-2.56-3-1.87,0-2.69,1.72-2.83,3h5.4Z"/><path d="m202.62,188.83v12.28c0,.9.02,1.93.08,2.62h-1.66l-.08-1.76h-.04c-.57,1.13-1.81,1.99-3.46,1.99-2.46,0-4.35-2.08-4.35-5.17-.02-3.38,2.08-5.46,4.56-5.46,1.55,0,2.6.73,3.07,1.55h.04v-6.07h1.85Zm-1.85,8.88c0-.23-.02-.55-.08-.78-.27-1.18-1.28-2.14-2.67-2.14-1.91,0-3.04,1.68-3.04,3.93,0,2.06,1.01,3.76,3,3.76,1.24,0,2.37-.82,2.71-2.2.06-.25.08-.5.08-.8v-1.76Z"/><path d="m94.49,214.97c.92-.19,2.25-.29,3.51-.29,1.95,0,3.21.36,4.09,1.15.71.63,1.11,1.6,1.11,2.69,0,1.87-1.18,3.11-2.67,3.61v.06c1.09.38,1.74,1.39,2.08,2.86.46,1.97.8,3.34,1.09,3.88h-1.89c-.23-.4-.55-1.62-.95-3.38-.42-1.95-1.18-2.69-2.83-2.75h-1.72v6.13h-1.83v-13.96Zm1.83,6.45h1.87c1.95,0,3.19-1.07,3.19-2.69,0-1.83-1.32-2.62-3.25-2.65-.88,0-1.51.08-1.81.17v5.17Z"/><path d="m106.84,224.19c.04,2.5,1.64,3.53,3.49,3.53,1.32,0,2.12-.23,2.81-.52l.32,1.32c-.65.29-1.76.63-3.38.63-3.13,0-5-2.06-5-5.12s1.81-5.48,4.77-5.48c3.32,0,4.2,2.92,4.2,4.79,0,.38-.04.67-.06.86h-7.14Zm5.42-1.32c.02-1.18-.48-3-2.56-3-1.87,0-2.69,1.72-2.83,3h5.4Z"/><path d="m116.08,227.04c.55.36,1.51.73,2.44.73,1.34,0,1.97-.67,1.97-1.51,0-.88-.52-1.36-1.89-1.87-1.83-.65-2.69-1.66-2.69-2.88,0-1.64,1.32-2.98,3.51-2.98,1.03,0,1.93.29,2.5.63l-.46,1.34c-.4-.25-1.13-.59-2.08-.59-1.09,0-1.7.63-1.7,1.39,0,.84.61,1.22,1.93,1.72,1.76.67,2.67,1.55,2.67,3.07,0,1.78-1.39,3.04-3.8,3.04-1.11,0-2.14-.27-2.86-.69l.46-1.41Z"/><path d="m133.84,223.77c0,3.76-2.6,5.4-5.06,5.4-2.75,0-4.87-2.02-4.87-5.23,0-3.4,2.23-5.4,5.04-5.4s4.89,2.12,4.89,5.23Zm-8.06.1c0,2.23,1.28,3.91,3.09,3.91s3.09-1.66,3.09-3.95c0-1.72-.86-3.91-3.04-3.91s-3.13,2.02-3.13,3.95Z"/><path d="m144.68,226.16c0,1.05.02,1.97.08,2.77h-1.64l-.11-1.66h-.04c-.48.82-1.55,1.89-3.36,1.89-1.6,0-3.51-.88-3.51-4.45v-5.94h1.85v5.63c0,1.93.59,3.23,2.27,3.23,1.24,0,2.1-.86,2.44-1.68.1-.27.17-.61.17-.94v-6.24h1.85v7.39Z"/><path d="m147.74,221.94c0-1.2-.02-2.23-.08-3.17h1.62l.06,1.99h.08c.46-1.36,1.57-2.23,2.81-2.23.21,0,.36.02.52.06v1.74c-.19-.04-.38-.06-.63-.06-1.3,0-2.23.99-2.48,2.37-.04.25-.08.55-.08.86v5.42h-1.83v-6.99Z"/><path d="m161.64,228.56c-.48.25-1.55.59-2.92.59-3.07,0-5.06-2.08-5.06-5.19s2.14-5.4,5.46-5.4c1.09,0,2.06.27,2.56.52l-.42,1.43c-.44-.25-1.13-.48-2.14-.48-2.33,0-3.59,1.72-3.59,3.84,0,2.35,1.51,3.8,3.53,3.8,1.05,0,1.74-.27,2.27-.5l.32,1.39Z"/><path d="m164.71,224.19c.04,2.5,1.64,3.53,3.49,3.53,1.32,0,2.12-.23,2.81-.52l.31,1.32c-.65.29-1.76.63-3.38.63-3.13,0-5-2.06-5-5.12s1.81-5.48,4.77-5.48c3.32,0,4.2,2.92,4.2,4.79,0,.38-.04.67-.06.86h-7.14Zm5.42-1.32c.02-1.18-.48-3-2.56-3-1.87,0-2.69,1.72-2.83,3h5.4Z"/><path d="m189.49,228.3c-.82.29-2.44.78-4.35.78-2.14,0-3.91-.55-5.29-1.87-1.22-1.18-1.97-3.07-1.97-5.27.02-4.22,2.92-7.31,7.66-7.31,1.64,0,2.92.36,3.53.65l-.44,1.49c-.76-.34-1.7-.61-3.13-.61-3.44,0-5.69,2.14-5.69,5.69s2.16,5.71,5.46,5.71c1.2,0,2.02-.17,2.44-.38v-4.22h-2.88v-1.47h4.66v6.8Z"/><path d="m192.22,221.94c0-1.2-.02-2.23-.08-3.17h1.62l.06,1.99h.08c.46-1.36,1.57-2.23,2.81-2.23.21,0,.36.02.52.06v1.74c-.19-.04-.38-.06-.63-.06-1.3,0-2.23.99-2.48,2.37-.04.25-.08.55-.08.86v5.42h-1.83v-6.99Z"/><path d="m208.07,223.77c0,3.76-2.6,5.4-5.06,5.4-2.75,0-4.87-2.02-4.87-5.23,0-3.4,2.23-5.4,5.04-5.4s4.89,2.12,4.89,5.23Zm-8.06.1c0,2.23,1.28,3.91,3.09,3.91s3.09-1.66,3.09-3.95c0-1.72-.86-3.91-3.04-3.91s-3.13,2.02-3.13,3.95Z"/><path d="m218.91,226.16c0,1.05.02,1.97.08,2.77h-1.64l-.1-1.66h-.04c-.48.82-1.55,1.89-3.36,1.89-1.6,0-3.51-.88-3.51-4.45v-5.94h1.85v5.63c0,1.93.59,3.23,2.27,3.23,1.24,0,2.1-.86,2.44-1.68.11-.27.17-.61.17-.94v-6.24h1.85v7.39Z"/><path d="m221.98,222.09c0-1.3-.04-2.35-.08-3.32h1.66l.08,1.74h.04c.76-1.24,1.95-1.97,3.61-1.97,2.46,0,4.3,2.08,4.3,5.17,0,3.65-2.23,5.46-4.62,5.46-1.34,0-2.52-.59-3.13-1.6h-.04v5.52h-1.83v-11Zm1.83,2.71c0,.27.04.52.08.76.34,1.28,1.45,2.16,2.77,2.16,1.95,0,3.09-1.6,3.09-3.93,0-2.04-1.07-3.78-3.02-3.78-1.26,0-2.44.9-2.79,2.29-.06.23-.13.5-.13.76v1.74Z"/></g><g><rect class="t" x="41.52" y="244.96" width="231.67" height="69.08"/><path d="m271.73,246.42v66.15H42.98v-66.15h228.74m2.92-2.92H40.06v72h234.59v-72h0Z"/></g><g><path d="m85.55,286.49c-.67.34-2.02.67-3.74.67-3.99,0-6.99-2.52-6.99-7.16s3-7.43,7.39-7.43c1.76,0,2.88.38,3.36.63l-.44,1.49c-.69-.34-1.68-.59-2.86-.59-3.32,0-5.52,2.12-5.52,5.84,0,3.46,1.99,5.69,5.44,5.69,1.11,0,2.25-.23,2.98-.59l.38,1.45Z"/><path d="m96.74,281.78c0,3.76-2.6,5.4-5.06,5.4-2.75,0-4.87-2.02-4.87-5.23,0-3.4,2.23-5.4,5.04-5.4s4.89,2.12,4.89,5.23Zm-8.06.1c0,2.23,1.28,3.91,3.09,3.91s3.09-1.66,3.09-3.95c0-1.72-.86-3.91-3.04-3.91s-3.13,2.02-3.13,3.95Z"/><path d="m99.07,279.54c0-1.05-.02-1.91-.08-2.75h1.62l.08,1.64h.06c.57-.97,1.51-1.87,3.19-1.87,1.39,0,2.44.84,2.88,2.04h.04c.32-.57.71-1.01,1.13-1.32.61-.46,1.28-.71,2.25-.71,1.34,0,3.34.88,3.34,4.41v5.98h-1.81v-5.75c0-1.95-.71-3.13-2.2-3.13-1.05,0-1.87.78-2.18,1.68-.08.25-.15.59-.15.92v6.28h-1.81v-6.09c0-1.62-.71-2.79-2.12-2.79-1.16,0-2,.92-2.29,1.85-.1.27-.15.59-.15.9v6.13h-1.81v-7.41Z"/><path d="m116.59,280.1c0-1.3-.04-2.35-.08-3.32h1.66l.08,1.74h.04c.76-1.24,1.95-1.97,3.61-1.97,2.46,0,4.3,2.08,4.3,5.17,0,3.65-2.23,5.46-4.62,5.46-1.34,0-2.52-.59-3.13-1.6h-.04v5.52h-1.83v-11Zm1.83,2.71c0,.27.04.52.08.76.34,1.28,1.45,2.16,2.77,2.16,1.95,0,3.09-1.6,3.09-3.93,0-2.04-1.07-3.78-3.02-3.78-1.26,0-2.44.9-2.79,2.29-.06.23-.13.5-.13.76v1.74Z"/><path d="m137.04,284.18c0,1.05.02,1.97.08,2.77h-1.64l-.1-1.66h-.04c-.48.82-1.55,1.89-3.36,1.89-1.6,0-3.51-.88-3.51-4.45v-5.94h1.85v5.63c0,1.93.59,3.23,2.27,3.23,1.24,0,2.1-.86,2.44-1.68.11-.27.17-.61.17-.94v-6.24h1.85v7.39Z"/><path d="m142.33,273.87v2.92h2.65v1.41h-2.65v5.48c0,1.26.36,1.97,1.39,1.97.48,0,.84-.06,1.07-.13l.08,1.39c-.36.15-.92.25-1.64.25-.86,0-1.55-.27-1.99-.78-.53-.55-.71-1.45-.71-2.65v-5.54h-1.58v-1.41h1.58v-2.44l1.81-.48Z"/><path d="m147.96,282.2c.04,2.5,1.64,3.53,3.49,3.53,1.32,0,2.12-.23,2.81-.52l.32,1.32c-.65.29-1.76.63-3.38.63-3.13,0-5-2.06-5-5.12s1.81-5.48,4.77-5.48c3.32,0,4.2,2.92,4.2,4.79,0,.38-.04.67-.06.86h-7.14Zm5.42-1.32c.02-1.18-.48-3-2.56-3-1.87,0-2.69,1.72-2.83,3h5.4Z"/><path d="m161.97,272.99c.92-.19,2.25-.29,3.51-.29,1.95,0,3.21.36,4.09,1.15.71.63,1.11,1.6,1.11,2.69,0,1.87-1.18,3.11-2.67,3.61v.06c1.09.38,1.74,1.39,2.08,2.86.46,1.97.8,3.34,1.09,3.88h-1.89c-.23-.4-.55-1.62-.95-3.38-.42-1.95-1.18-2.69-2.83-2.75h-1.72v6.13h-1.83v-13.96Zm1.83,6.45h1.87c1.95,0,3.19-1.07,3.19-2.69,0-1.83-1.32-2.62-3.25-2.65-.88,0-1.51.08-1.81.17v5.17Z"/><path d="m174.31,282.2c.04,2.5,1.64,3.53,3.49,3.53,1.32,0,2.12-.23,2.81-.52l.32,1.32c-.65.29-1.76.63-3.38.63-3.13,0-5-2.06-5-5.12s1.81-5.48,4.77-5.48c3.32,0,4.2,2.92,4.2,4.79,0,.38-.04.67-.06.86h-7.14Zm5.42-1.32c.02-1.18-.48-3-2.56-3-1.87,0-2.69,1.72-2.83,3h5.4Z"/><path d="m183.55,285.06c.55.36,1.51.73,2.44.73,1.34,0,1.97-.67,1.97-1.51,0-.88-.52-1.36-1.89-1.87-1.83-.65-2.69-1.66-2.69-2.88,0-1.64,1.32-2.98,3.51-2.98,1.03,0,1.93.29,2.5.63l-.46,1.34c-.4-.25-1.13-.59-2.08-.59-1.09,0-1.7.63-1.7,1.39,0,.84.61,1.22,1.93,1.72,1.76.67,2.67,1.55,2.67,3.07,0,1.78-1.39,3.04-3.8,3.04-1.11,0-2.14-.27-2.86-.69l.46-1.41Z"/><path d="m201.32,281.78c0,3.76-2.6,5.4-5.06,5.4-2.75,0-4.87-2.02-4.87-5.23,0-3.4,2.23-5.4,5.04-5.4s4.89,2.12,4.89,5.23Zm-8.06.1c0,2.23,1.28,3.91,3.09,3.91s3.09-1.66,3.09-3.95c0-1.72-.86-3.91-3.04-3.91s-3.13,2.02-3.13,3.95Z"/><path d="m212.16,284.18c0,1.05.02,1.97.08,2.77h-1.64l-.11-1.66h-.04c-.48.82-1.55,1.89-3.36,1.89-1.6,0-3.51-.88-3.51-4.45v-5.94h1.85v5.63c0,1.93.59,3.23,2.27,3.23,1.24,0,2.1-.86,2.44-1.68.1-.27.17-.61.17-.94v-6.24h1.85v7.39Z"/><path d="m215.22,279.96c0-1.2-.02-2.23-.08-3.17h1.62l.06,1.99h.08c.46-1.36,1.57-2.23,2.81-2.23.21,0,.36.02.52.06v1.74c-.19-.04-.38-.06-.63-.06-1.3,0-2.23.99-2.48,2.37-.04.25-.08.55-.08.86v5.42h-1.83v-6.99Z"/><path d="m229.12,286.57c-.48.25-1.55.59-2.92.59-3.07,0-5.06-2.08-5.06-5.19s2.14-5.4,5.46-5.4c1.09,0,2.06.27,2.56.52l-.42,1.43c-.44-.25-1.13-.48-2.14-.48-2.33,0-3.59,1.72-3.59,3.84,0,2.35,1.51,3.8,3.53,3.8,1.05,0,1.74-.27,2.27-.5l.32,1.39Z"/><path d="m232.19,282.2c.04,2.5,1.64,3.53,3.49,3.53,1.32,0,2.12-.23,2.81-.52l.32,1.32c-.65.29-1.76.63-3.38.63-3.13,0-5-2.06-5-5.12s1.81-5.48,4.77-5.48c3.32,0,4.2,2.92,4.2,4.79,0,.38-.04.67-.06.86h-7.14Zm5.42-1.32c.02-1.18-.48-3-2.56-3-1.87,0-2.69,1.72-2.83,3h5.4Z"/></g><g id="e"><g id="f"><path class="aa" d="m268.84,216.38s.06,0,.1-.03l6.41-3.55c.06-.03.1-.1.1-.16v-7.17c0-.06-.03-.13-.1-.16-.06-.03-.13-.03-.19,0l-6.41,3.59c-.06.03-.1.1-.1.16v7.17c0,.06.03.13.1.16h.1Zm0,9.42s.06,0,.1-.03l6.41-3.55c.06-.03.1-.1.1-.16v-7.14c0-.06-.03-.13-.1-.16-.06-.03-.13-.03-.19,0l-6.41,3.55c-.06.03-.1.1-.1.16v7.14c0,.06.03.13.1.16.03.03.06.03.1.03Zm8.31-14.12s.06,0,.1-.03l6.41-3.55c.06-.03.1-.1.1-.16v-7.14c0-.06-.03-.13-.1-.16-.06-.03-.13-.03-.19,0l-6.41,3.52c-.06.03-.1.1-.1.16v7.17c0,.06.03.13.1.16.03,0,.06.03.1.03h0Zm0,9.42s.06,0,.1-.03l6.41-3.55c.06-.03.1-.1.1-.16v-7.17c0-.06-.03-.13-.1-.16-.06-.03-.13-.03-.19,0l-6.41,3.55c-.06.03-.1.1-.1.16v7.17c0,.06.03.13.1.16.03.03.06.03.1.03h0Z"/></g><g id="g"><path class="x" d="m268.84,225.8s.06,0,.1-.03l6.41-3.55c.06-.03.1-.1.1-.16v-7.14c0-.06-.03-.13-.1-.16-.06-.03-.13-.03-.19,0l-6.41,3.55c-.06.03-.1.1-.1.16v7.14c0,.06.03.13.1.16.03.03.06.03.1.03Zm8.31-4.7s.06,0,.1-.03l6.41-3.55c.06-.03.1-.1.1-.16v-7.17c0-.06-.03-.13-.1-.16-.06-.03-.13-.03-.19,0l-6.41,3.55c-.06.03-.1.1-.1.16v7.17c0,.06.03.13.1.16.03.03.06.03.1.03h0Zm-8.31-4.73s.06,0,.1-.03l6.41-3.55c.06-.03.1-.1.1-.16v-7.17c0-.06-.03-.13-.1-.16-.06-.03-.13-.03-.19,0l-6.41,3.59c-.06.03-.1.1-.1.16v7.17c0,.06.03.13.1.16h.1Zm8.31-4.7s.06,0,.1-.03l6.41-3.55c.06-.03.1-.1.1-.16v-7.14c0-.06-.03-.13-.1-.16-.06-.03-.13-.03-.19,0l-6.41,3.52c-.06.03-.1.1-.1.16v7.17c0,.06.03.13.1.16.03,0,.06.03.1.03h0Z"/></g><g id="h"><path class="y" d="m266.94,216.38s-.06,0-.1-.03l-6.44-3.55c-.06-.03-.1-.1-.1-.16v-7.17c0-.06.03-.13.1-.16s.13-.03.19,0l6.44,3.55c.06.03.1.1.1.16v7.17c0,.06-.03.13-.1.16-.03.03-.06.03-.1.03h0Zm0,9.42s-.06,0-.1-.03l-6.44-3.55c-.06-.03-.1-.1-.1-.16v-7.14c0-.06.03-.13.1-.16s.13-.03.19,0l6.44,3.55c.06.03.1.1.1.16v7.14c0,.06-.03.13-.1.16-.03.03-.06.03-.1.03h0Zm-8.31-14.12s-.06,0-.1-.03l-6.44-3.55c-.06-.03-.1-.1-.1-.16v-7.14c0-.06.03-.13.1-.16s.13-.03.19,0l6.41,3.55c.06.03.1.1.1.16v7.14c0,.06-.03.13-.1.16,0,.03-.06.03-.06.03h0Zm0,9.42s-.06,0-.1-.03l-6.44-3.55c-.06-.03-.1-.1-.1-.16v-7.17c0-.06.03-.13.1-.16s.13-.03.19,0l6.41,3.55c.06.03.1.1.1.16v7.17c0,.06-.03.13-.1.16,0,.03-.06.03-.06.03h0Zm2.76-17.77s.03-.06.06-.06l6.38-3.49c.06-.03.13-.03.19,0l6.31,3.46c.06.03.1.1.1.16s-.03.13-.1.16l-6.38,3.49c-.06.03-.13.03-.19,0l-6.28-3.46c-.06-.03-.1-.1-.1-.16v-.1h0Zm-8.31-4.54s.03-.06.06-.06l6.31-3.49c.06-.03.13-.03.19,0l6.25,3.46c.06.03.1.1.1.16s-.03.13-.1.16l-6.31,3.49c-.06.03-.13.03-.19,0l-6.25-3.46c-.06-.03-.1-.1-.1-.16,0-.03,0-.06.03-.1h0Zm16.82.06s.03-.06.06-.06l6.31-3.49c.06-.03.13-.03.19,0l6.25,3.46c.06.03.1.1.1.16s-.03.13-.1.16l-6.31,3.49c-.06.03-.13.03-.19,0l-6.25-3.46c-.06-.03-.1-.1-.1-.16,0-.03.03-.06.03-.1h0Zm-8.47-4.47s.03-.06.06-.06l6.38-3.43c.06-.03.13-.03.19,0l6.31,3.4c.06.03.1.1.1.16s-.03.13-.1.16l-6.35,3.43c-.06.03-.13.03-.19,0l-6.35-3.4c-.06-.03-.1-.1-.1-.16,0-.03.03-.06.03-.1h0Z"/></g><g id="i"><path class="v" d="m261.39,203.34s.03-.06.06-.06l6.38-3.49c.06-.03.13-.03.19,0l6.31,3.46c.06.03.1.1.1.16s-.03.13-.1.16l-6.38,3.49c-.06.03-.13.03-.19,0l-6.28-3.46c-.06-.03-.1-.1-.1-.16v-.1h0Zm-8.31-4.54s.03-.06.06-.06l6.31-3.49c.06-.03.13-.03.19,0l6.25,3.46c.06.03.1.1.1.16s-.03.13-.1.16l-6.31,3.49c-.06.03-.13.03-.19,0l-6.25-3.46c-.06-.03-.1-.1-.1-.16,0-.03,0-.06.03-.1h0Zm16.82.06s.03-.06.06-.06l6.31-3.49c.06-.03.13-.03.19,0l6.25,3.46c.06.03.1.1.1.16s-.03.13-.1.16l-6.31,3.49c-.06.03-.13.03-.19,0l-6.25-3.46c-.06-.03-.1-.1-.1-.16,0-.03.03-.06.03-.1h0Zm-8.47-4.47s.03-.06.06-.06l6.38-3.43c.06-.03.13-.03.19,0l6.31,3.4c.06.03.1.1.1.16s-.03.13-.1.16l-6.35,3.43c-.06.03-.13.03-.19,0l-6.35-3.4c-.06-.03-.1-.1-.1-.16,0-.03.03-.06.03-.1h0Zm-9.33,23.13l6.41,3.55c.06.03.13.03.19,0,.06-.03.1-.1.1-.16v-5.39c-.29-.03-.57-.06-.86-.06-1.75,0-3.05.29-4.09.51-.73.16-1.3.29-1.87.29v1.08c.03.1.06.16.13.19Zm14.85,8.28s.06,0,.1-.03c.06-.03.1-.1.1-.16v-5.74c-.6,0-1.24.03-1.81.03-.73,0-1.05-.03-1.17-.03-.19-.13-.54-.63-.79-.98-.63-.89-1.55-2.19-3.05-2.89v6.06c0,.06.03.13.1.16l6.44,3.59h.1Zm8.5-3.74v-.76c-.76.32-1.62.7-2.41,1.05-.29-2.35-2.7-2.44-3.49-2.51h-.89v5.77c0,.06.03.13.1.16.06.03.13.03.19,0l6.41-3.55c.06-.03.1-.1.1-.16h0Zm2.41-1.84c-.22.1-.54.25-.89.41v.29c0,.06.03.13.1.16.06.03.13.03.19,0l2.63-1.46c-.7.1-1.4.29-2.03.6Z"/></g><g id="j"><path class="w" d="m261.39,230.2c-2.13,0-4.79-2.28-5.81-3.24-.22-.22-.44-.41-.67-.63-1.62-1.43-3.3-2.09-5.27-2.09h-2.79v-6.79h5.17c.67,0,1.36-.13,2.13-.32.98-.22,2.22-.48,3.84-.48,2.38,0,3.52,1.62,4.44,2.92.54.73.98,1.36,1.52,1.46.25.03.7.06,1.4.06s1.59,0,2.32-.03c.51,0,1.05-.03,1.55-.03h.29c1.65.06,2.32.51,2.38,1.59,0,.29,0,.57-.1.82l-.25.82.79-.32c1.81-.76,5.04-2.16,6.09-2.63.98-.48,2-.73,2.89-.73.95,0,1.65.29,1.9.79,0,0,.76,1.46-1.65,2.89-1.4.82-2.79,1.62-4.19,2.44-2.09,1.21-3.74,2.16-4.51,2.67-.7.48-1.68.54-2.44.54-.41,0-.82-.03-1.27-.03-.41-.03-.82-.03-1.27-.03-1.02,0-2.57.13-4.19.25-.73.06-1.46.13-2.16.16-.06-.06-.13-.06-.16-.06Z"/></g><g id="k"><path class="v" d="m272.46,224.31c2.25-.95,5.11-2.19,6.09-2.67.92-.44,1.9-.7,2.73-.7s1.36.22,1.55.6c0,.03.54,1.17-1.52,2.35-1.4.82-2.79,1.62-4.19,2.41-2.09,1.21-3.78,2.16-4.54,2.67-.6.41-1.52.48-2.22.48-.41,0-.79-.03-1.21-.03-.44-.03-.89-.03-1.3-.06-1.05,0-2.57.13-4.19.25-.76.06-1.49.13-2.22.16h-.13c-2.03,0-4.76-2.41-5.55-3.14-.29-.29-.51-.48-.7-.63-1.71-1.49-3.46-2.19-5.52-2.19h-2.38v-5.97h4.76c.73,0,1.4-.16,2.22-.32.98-.22,2.19-.48,3.74-.48,2.16,0,3.2,1.46,4.12,2.76.57.79,1.08,1.49,1.78,1.62.29.03.73.06,1.46.06s1.49,0,2.19-.03h.25c.48,0,.95-.03,1.43-.03h.25c1.78.06,1.97.6,2,1.21,0,.25,0,.48-.06.7l-.54,1.43c.1.03,1.14-.22,1.68-.44Z"/></g><g id="l"><path class="z" d="m261.37,230.6c-2.09,0-4.57-1.94-6.09-3.36-.25-.25-.48-.48-.67-.63-1.55-1.36-3.14-2-5.01-2h-2.79c-.22,0-.38-.19-.38-.41v-6.76c0-.22.19-.41.41-.41h5.17c.63,0,1.27-.16,2.03-.32,1.02-.22,2.25-.48,3.93-.48,2.57,0,3.84,1.78,4.76,3.08.44.63.89,1.24,1.27,1.3.54.1,2.38.06,3.71,0,.79,0,1.49-.03,1.81-.03,1.3.06,2.67.35,2.76,1.97.03.38-.03.7-.1.98,1.75-.73,5.01-2.13,6.06-2.63,2.25-1.08,4.66-1.02,5.33.25.22.41.57,2.03-1.81,3.43-1.4.82-2.79,1.62-4.19,2.41-2.09,1.21-3.74,2.16-4.47,2.63-1.05.7-2.54.63-3.97.54-.41-.03-.82-.03-1.21-.03-1.02,0-2.54.13-4.16.25-.73.06-1.46.13-2.19.16-.1.06-.16.06-.22.06Zm-14.15-6.79h2.38c2.03,0,3.87.73,5.55,2.19.19.16.41.38.7.63,1.36,1.27,3.9,3.27,5.68,3.14.7-.06,1.46-.1,2.16-.16,1.62-.13,3.17-.25,4.22-.25.41,0,.82,0,1.27.03,1.3.06,2.67.13,3.49-.41.76-.51,2.44-1.46,4.54-2.67,1.3-.73,2.73-1.55,4.19-2.41,1.21-.7,1.87-1.68,1.52-2.35-.41-.79-2.28-.86-4.28.1-1.46.7-6.98,3.01-7.23,3.11-.16.13-.41.13-.57-.06-.13-.16-.13-.41.06-.57.03-.03.06-.03.1-.06.03-.03.6-.54.54-1.46-.06-.73-.38-1.14-2-1.24-.29,0-.95,0-1.75.03-1.52.03-3.24.06-3.87-.03-.7-.13-1.21-.82-1.78-1.62-.89-1.24-1.97-2.76-4.12-2.76-1.59,0-2.73.25-3.74.48-.79.19-1.49.32-2.22.32h-4.76v6.03h-.06Z"/></g><g id="m"><path class="z" d="m265.21,225.44c-1.55,0-2.7-.19-3.33-.73l-2.44-2.16.54-.6,2.44,2.16c.82.73,4.44.48,5.81.38,2.16-.13,2.38-.25,3.68-.79.19-.1.44.03.51.22s-.03.44-.22.51c-1.4.57-1.71.7-3.93.82-.82.06-2.38.19-3.05.19Z"/></g></g><g><g><rect class="t" x="67.94" y="23.64" width="232.42" height="105.04"/><path d="m298.88,25.12v102.07H69.42V25.12h229.46m2.96-2.96H66.46v108h235.38V22.15h0Z"/></g><g><path d="m99.35,58.22c-.67.34-2.02.67-3.74.67-3.99,0-6.99-2.52-6.99-7.16s3-7.43,7.39-7.43c1.76,0,2.88.38,3.36.63l-.44,1.49c-.69-.34-1.68-.59-2.86-.59-3.32,0-5.52,2.12-5.52,5.84,0,3.46,2,5.69,5.44,5.69,1.11,0,2.25-.23,2.98-.59l.38,1.45Z"/><path d="m109.83,55.91c0,1.05.02,1.97.08,2.77h-1.64l-.1-1.66h-.04c-.48.82-1.55,1.89-3.36,1.89-1.6,0-3.51-.88-3.51-4.45v-5.94h1.85v5.63c0,1.93.59,3.23,2.27,3.23,1.24,0,2.1-.86,2.44-1.68.1-.27.17-.61.17-.94v-6.24h1.85v7.39Z"/><path d="m112.65,56.8c.55.36,1.51.73,2.44.73,1.34,0,1.97-.67,1.97-1.51,0-.88-.53-1.36-1.89-1.87-1.83-.65-2.69-1.66-2.69-2.88,0-1.64,1.32-2.98,3.51-2.98,1.03,0,1.93.29,2.5.63l-.46,1.34c-.4-.25-1.13-.59-2.08-.59-1.09,0-1.7.63-1.7,1.39,0,.84.61,1.22,1.93,1.72,1.76.67,2.67,1.55,2.67,3.07,0,1.78-1.39,3.04-3.8,3.04-1.11,0-2.14-.27-2.86-.69l.46-1.41Z"/><path d="m123.44,45.61v2.92h2.65v1.41h-2.65v5.48c0,1.26.36,1.97,1.39,1.97.48,0,.84-.06,1.07-.13l.08,1.39c-.36.15-.92.25-1.64.25-.86,0-1.55-.27-2-.78-.52-.55-.71-1.45-.71-2.65v-5.54h-1.57v-1.41h1.57v-2.44l1.81-.48Z"/><path d="m137.24,53.52c0,3.76-2.6,5.4-5.06,5.4-2.75,0-4.87-2.02-4.87-5.23,0-3.4,2.23-5.4,5.04-5.4s4.89,2.12,4.89,5.23Zm-8.06.1c0,2.23,1.28,3.91,3.09,3.91s3.09-1.66,3.09-3.95c0-1.72-.86-3.91-3.04-3.91s-3.13,2.02-3.13,3.95Z"/><path d="m139.57,51.27c0-1.05-.02-1.91-.08-2.75h1.62l.08,1.64h.06c.57-.97,1.51-1.87,3.19-1.87,1.39,0,2.44.84,2.88,2.04h.04c.32-.57.71-1.01,1.13-1.32.61-.46,1.28-.71,2.25-.71,1.34,0,3.34.88,3.34,4.41v5.98h-1.8v-5.75c0-1.95-.71-3.13-2.21-3.13-1.05,0-1.87.78-2.18,1.68-.08.25-.15.59-.15.92v6.28h-1.81v-6.09c0-1.62-.71-2.79-2.12-2.79-1.16,0-2,.92-2.29,1.85-.11.27-.15.59-.15.9v6.13h-1.81v-7.41Z"/><path d="m158.11,53.94c.04,2.5,1.64,3.53,3.49,3.53,1.32,0,2.12-.23,2.81-.52l.31,1.32c-.65.29-1.76.63-3.38.63-3.13,0-5-2.06-5-5.12s1.81-5.48,4.77-5.48c3.32,0,4.2,2.92,4.2,4.79,0,.38-.04.67-.06.86h-7.14Zm5.42-1.32c.02-1.18-.48-3-2.56-3-1.87,0-2.69,1.72-2.83,3h5.4Z"/><path d="m167.61,51.69c0-1.2-.02-2.23-.08-3.17h1.62l.06,1.99h.08c.46-1.36,1.57-2.23,2.81-2.23.21,0,.36.02.52.06v1.74c-.19-.04-.38-.06-.63-.06-1.3,0-2.23.99-2.48,2.37-.04.25-.08.55-.08.86v5.42h-1.83v-6.99Z"/><path d="m181.28,54.23l-1.47,4.45h-1.89l4.81-14.15h2.2l4.83,14.15h-1.95l-1.51-4.45h-5.02Zm4.64-1.43l-1.39-4.07c-.31-.92-.52-1.76-.73-2.58h-.04c-.21.84-.44,1.7-.71,2.56l-1.39,4.09h4.26Z"/><path d="m194.13,54.23l-1.47,4.45h-1.89l4.81-14.15h2.21l4.83,14.15h-1.95l-1.51-4.45h-5.02Zm4.64-1.43l-1.39-4.07c-.32-.92-.52-1.76-.74-2.58h-.04c-.21.84-.44,1.7-.71,2.56l-1.38,4.09h4.26Z"/><path d="m204.69,44.72c1.11-.17,2.44-.29,3.88-.29,2.62,0,4.49.61,5.73,1.76,1.26,1.15,2,2.79,2,5.08s-.71,4.2-2.04,5.5c-1.32,1.32-3.51,2.04-6.26,2.04-1.3,0-2.39-.06-3.32-.17v-13.92Zm1.83,12.51c.46.08,1.13.1,1.85.1,3.91,0,6.03-2.18,6.03-6,.02-3.34-1.87-5.46-5.73-5.46-.94,0-1.66.08-2.14.19v11.17Z"/><path d="m224.96,46.09h-4.3v-1.55h10.48v1.55h-4.33v12.6h-1.85v-12.6Z"/><path d="m232.18,53.94c.04,2.5,1.64,3.53,3.49,3.53,1.32,0,2.12-.23,2.81-.52l.31,1.32c-.65.29-1.76.63-3.38.63-3.13,0-5-2.06-5-5.12s1.81-5.48,4.77-5.48c3.32,0,4.2,2.92,4.2,4.79,0,.38-.04.67-.06.86h-7.14Zm5.42-1.32c.02-1.18-.48-3-2.56-3-1.87,0-2.69,1.72-2.83,3h5.4Z"/><path d="m241.67,51.27c0-1.05-.02-1.91-.08-2.75h1.64l.1,1.68h.04c.5-.97,1.68-1.91,3.36-1.91,1.41,0,3.59.84,3.59,4.33v6.07h-1.85v-5.86c0-1.64-.61-3-2.35-3-1.22,0-2.16.86-2.48,1.89-.08.23-.13.55-.13.86v6.11h-1.85v-7.41Z"/><path d="m258.95,58.69l-.15-1.28h-.06c-.57.8-1.66,1.51-3.11,1.51-2.06,0-3.11-1.45-3.11-2.92,0-2.46,2.18-3.8,6.11-3.78v-.21c0-.84-.23-2.35-2.31-2.35-.94,0-1.93.29-2.65.76l-.42-1.22c.84-.55,2.06-.9,3.34-.9,3.11,0,3.86,2.12,3.86,4.16v3.8c0,.88.04,1.74.17,2.44h-1.68Zm-.27-5.19c-2.02-.04-4.3.31-4.3,2.29,0,1.2.8,1.76,1.74,1.76,1.32,0,2.16-.84,2.46-1.7.06-.19.1-.4.1-.59v-1.76Z"/><path d="m263.45,51.27c0-1.05-.02-1.91-.08-2.75h1.64l.11,1.68h.04c.5-.97,1.68-1.91,3.36-1.91,1.41,0,3.59.84,3.59,4.33v6.07h-1.85v-5.86c0-1.64-.61-3-2.35-3-1.22,0-2.16.86-2.48,1.89-.08.23-.12.55-.12.86v6.11h-1.85v-7.41Z"/><path d="m277.25,45.61v2.92h2.65v1.41h-2.65v5.48c0,1.26.36,1.97,1.39,1.97.48,0,.84-.06,1.07-.13l.08,1.39c-.36.15-.92.25-1.64.25-.86,0-1.55-.27-2-.78-.52-.55-.71-1.45-.71-2.65v-5.54h-1.57v-1.41h1.57v-2.44l1.81-.48Z"/></g><g><polygon class="s" points="246.96 97.12 268.67 111.21 290.77 97.06 293.54 100.3 268.67 116.31 244.19 100.3 246.96 97.12"/><polygon class="t" points="248.6 95.31 268.67 71.4 289.15 95.33 268.67 108.27 248.6 95.31"/><polygon class="s" points="268.67 71.4 268.67 108.27 248.6 95.31 268.67 71.4"/><polygon class="ak" points="268.67 71.4 268.67 108.27 289.15 95.33 268.67 71.4"/><polygon class="aj" points="268.67 90.45 289.15 95.33 268.67 108.27 268.67 90.45"/><polygon class="al" points="268.67 108.27 248.6 95.31 268.67 90.45 268.67 108.27"/><polygon class="am" points="268.67 116.31 293.54 100.3 290.77 97.06 268.67 111.21 268.67 116.31"/></g></g><g><g><rect class="t" x="411.33" y="26.4" width="232.42" height="105.04"/><path d="m642.27,27.89v102.07h-229.46V27.89h229.46m2.96-2.96h-235.38v108h235.38V24.92h0Z"/></g><g><path d="m434.58,47.47c.88-.15,2.04-.27,3.51-.27,1.81,0,3.13.42,3.97,1.18.78.67,1.24,1.7,1.24,2.96s-.38,2.29-1.09,3.02c-.97,1.03-2.54,1.55-4.33,1.55-.55,0-1.05-.02-1.47-.13v5.67h-1.83v-13.98Zm1.83,6.82c.4.1.9.15,1.51.15,2.21,0,3.55-1.07,3.55-3.02s-1.32-2.77-3.34-2.77c-.8,0-1.41.06-1.72.15v5.5Z"/><path d="m453.88,58.68c0,1.05.02,1.97.08,2.77h-1.64l-.1-1.66h-.04c-.48.82-1.55,1.89-3.36,1.89-1.6,0-3.51-.88-3.51-4.45v-5.94h1.85v5.63c0,1.93.59,3.23,2.27,3.23,1.24,0,2.1-.86,2.44-1.68.11-.27.17-.61.17-.94v-6.24h1.85v7.39Z"/><path d="m456.86,61.45c.04-.69.08-1.72.08-2.62v-12.28h1.83v6.38h.04c.65-1.13,1.83-1.87,3.46-1.87,2.52,0,4.3,2.1,4.28,5.19,0,3.63-2.29,5.44-4.56,5.44-1.47,0-2.65-.57-3.4-1.91h-.06l-.08,1.68h-1.6Zm1.91-4.07c0,.23.04.46.08.67.36,1.28,1.43,2.16,2.77,2.16,1.93,0,3.09-1.57,3.09-3.91,0-2.04-1.05-3.78-3.02-3.78-1.26,0-2.44.86-2.81,2.27-.04.21-.1.46-.1.76v1.83Z"/><path d="m468.9,46.55h1.85v14.91h-1.85v-14.91Z"/><path d="m475.91,48.44c.02.63-.44,1.13-1.18,1.13-.65,0-1.11-.5-1.11-1.13s.48-1.15,1.16-1.15,1.13.5,1.13,1.15Zm-2.06,13.02v-10.16h1.85v10.16h-1.85Z"/><path d="m478.51,59.57c.55.36,1.51.73,2.44.73,1.34,0,1.97-.67,1.97-1.51,0-.88-.53-1.36-1.89-1.87-1.83-.65-2.69-1.66-2.69-2.88,0-1.64,1.32-2.98,3.51-2.98,1.03,0,1.93.29,2.5.63l-.46,1.34c-.4-.25-1.13-.59-2.08-.59-1.09,0-1.7.63-1.7,1.39,0,.84.61,1.22,1.93,1.72,1.76.67,2.67,1.55,2.67,3.07,0,1.78-1.39,3.04-3.8,3.04-1.11,0-2.14-.27-2.86-.69l.46-1.41Z"/><path d="m487.08,46.55h1.85v6.34h.04c.29-.52.76-.99,1.32-1.3.55-.31,1.2-.52,1.89-.52,1.36,0,3.55.84,3.55,4.35v6.05h-1.85v-5.84c0-1.64-.61-3.02-2.35-3.02-1.2,0-2.14.84-2.48,1.85-.1.25-.13.52-.13.88v6.13h-1.85v-14.91Z"/><path d="m499.77,56.71c.04,2.5,1.64,3.53,3.49,3.53,1.32,0,2.12-.23,2.81-.52l.32,1.32c-.65.29-1.76.63-3.38.63-3.13,0-5-2.06-5-5.12s1.81-5.48,4.77-5.48c3.32,0,4.2,2.92,4.2,4.79,0,.38-.04.67-.06.86h-7.14Zm5.42-1.32c.02-1.18-.48-3-2.56-3-1.87,0-2.69,1.72-2.83,3h5.4Z"/><path d="m509.26,54.46c0-1.2-.02-2.23-.08-3.17h1.62l.06,1.99h.08c.46-1.36,1.58-2.23,2.81-2.23.21,0,.36.02.53.06v1.74c-.19-.04-.38-.06-.63-.06-1.3,0-2.23.99-2.48,2.37-.04.25-.08.55-.08.86v5.42h-1.83v-6.99Z"/><path d="m522.93,57l-1.47,4.45h-1.89l4.81-14.15h2.2l4.83,14.15h-1.95l-1.51-4.45h-5.02Zm4.64-1.43l-1.39-4.07c-.32-.92-.53-1.76-.74-2.58h-.04c-.21.84-.44,1.7-.71,2.56l-1.39,4.09h4.26Z"/><path d="m535.78,57l-1.47,4.45h-1.89l4.81-14.15h2.21l4.83,14.15h-1.95l-1.51-4.45h-5.02Zm4.64-1.43l-1.39-4.07c-.31-.92-.52-1.76-.73-2.58h-.04c-.21.84-.44,1.7-.71,2.56l-1.39,4.09h4.26Z"/><path d="m546.34,47.49c1.11-.17,2.44-.29,3.88-.29,2.62,0,4.49.61,5.73,1.76,1.26,1.15,1.99,2.79,1.99,5.08s-.71,4.2-2.04,5.5c-1.32,1.32-3.51,2.04-6.26,2.04-1.3,0-2.39-.06-3.32-.17v-13.92Zm1.83,12.51c.46.08,1.13.1,1.85.1,3.91,0,6.03-2.18,6.03-6,.02-3.34-1.87-5.46-5.73-5.46-.94,0-1.66.08-2.14.19v11.17Z"/><path d="m566.61,48.86h-4.3v-1.55h10.48v1.55h-4.33v12.6h-1.85v-12.6Z"/><path d="m573.83,56.71c.04,2.5,1.64,3.53,3.49,3.53,1.32,0,2.12-.23,2.81-.52l.32,1.32c-.65.29-1.76.63-3.38.63-3.13,0-5-2.06-5-5.12s1.81-5.48,4.77-5.48c3.32,0,4.2,2.92,4.2,4.79,0,.38-.04.67-.06.86h-7.14Zm5.42-1.32c.02-1.18-.48-3-2.56-3-1.87,0-2.69,1.72-2.83,3h5.4Z"/><path d="m583.32,54.04c0-1.05-.02-1.91-.08-2.75h1.64l.11,1.68h.04c.5-.97,1.68-1.91,3.36-1.91,1.41,0,3.59.84,3.59,4.33v6.07h-1.85v-5.86c0-1.64-.61-3-2.35-3-1.22,0-2.16.86-2.48,1.89-.08.23-.13.55-.13.86v6.11h-1.85v-7.41Z"/><path d="m600.61,61.45l-.15-1.28h-.06c-.57.8-1.66,1.51-3.11,1.51-2.06,0-3.11-1.45-3.11-2.92,0-2.46,2.18-3.8,6.11-3.78v-.21c0-.84-.23-2.35-2.31-2.35-.94,0-1.93.29-2.65.76l-.42-1.22c.84-.55,2.06-.9,3.34-.9,3.11,0,3.86,2.12,3.86,4.16v3.8c0,.88.04,1.74.17,2.44h-1.68Zm-.27-5.19c-2.02-.04-4.3.31-4.3,2.29,0,1.2.8,1.76,1.74,1.76,1.32,0,2.16-.84,2.46-1.7.06-.19.1-.4.1-.59v-1.76Z"/><path d="m605.1,54.04c0-1.05-.02-1.91-.08-2.75h1.64l.1,1.68h.04c.5-.97,1.68-1.91,3.36-1.91,1.41,0,3.59.84,3.59,4.33v6.07h-1.85v-5.86c0-1.64-.61-3-2.35-3-1.22,0-2.16.86-2.48,1.89-.08.23-.13.55-.13.86v6.11h-1.85v-7.41Z"/><path d="m618.9,48.37v2.92h2.65v1.41h-2.65v5.48c0,1.26.36,1.97,1.39,1.97.48,0,.84-.06,1.07-.13l.08,1.39c-.36.15-.92.25-1.64.25-.86,0-1.55-.27-2-.78-.52-.55-.71-1.45-.71-2.65v-5.54h-1.57v-1.41h1.57v-2.44l1.81-.48Z"/></g><g><polygon class="s" points="590.34 99.89 612.06 113.98 634.15 99.83 636.92 103.07 612.06 119.08 587.57 103.07 590.34 99.89"/><polygon class="t" points="591.99 98.08 612.06 74.17 632.54 98.1 612.06 111.04 591.99 98.08"/><polygon class="s" points="612.06 74.17 612.06 111.04 591.99 98.08 612.06 74.17"/><polygon class="r" points="612.06 74.17 612.06 111.04 632.54 98.1 612.06 74.17"/><polygon class="aj" points="612.06 93.22 632.54 98.1 612.06 111.04 612.06 93.22"/><polygon class="al" points="612.06 111.04 591.99 98.08 612.06 93.22 612.06 111.04"/><polygon class="ai" points="612.06 119.08 636.92 103.07 634.15 99.83 612.06 113.98 612.06 119.08"/></g></g><g><line class="ae" x1="274.15" y1="282.46" x2="339.29" y2="282.46"/><polygon points="336.52 286.53 351.69 282.46 336.52 278.39 336.52 286.53"/></g></svg>