<?xml version="1.0" encoding="UTF-8"?><svg id="d" xmlns="http://www.w3.org/2000/svg" viewBox="0 0 476.31 318.46"><defs><style>.e{fill:#fff;}.f{fill:none;stroke:#000;stroke-linecap:round;stroke-miterlimit:10;stroke-width:2px;}.g{fill:#0078d7;}</style></defs><rect class="e" y="0" width="476.31" height="318.46"/><g><rect class="e" x="29.17" y="175.94" width="165.96" height="69.04"/><path d="m193.65,177.42v66.07H30.65v-66.07h163m2.96-2.96H27.69v72h168.92v-72h0Z"/></g><g><rect class="e" x="18.1" y="164.87" width="165.96" height="69.04"/><path d="m182.58,166.35v66.07H19.58v-66.07h163m2.96-2.96H16.62v72h168.92v-72h0Z"/></g><g><rect class="e" x="303.33" y="175.94" width="165.96" height="135.5"/><path d="m467.81,177.42v132.54h-163v-132.54h163m2.96-2.96h-168.92v138.46h168.92v-138.46h0Z"/></g><g><path d="m325.5,277.32c.88-.15,2.04-.27,3.51-.27,1.81,0,3.13.42,3.97,1.18.78.67,1.24,1.7,1.24,2.96s-.38,2.29-1.09,3.02c-.97,1.03-2.54,1.55-4.33,1.55-.55,0-1.05-.02-1.47-.13v5.67h-1.83v-13.98Zm1.83,6.82c.4.1.9.15,1.51.15,2.21,0,3.55-1.07,3.55-3.02s-1.32-2.77-3.34-2.77c-.8,0-1.41.06-1.72.15v5.5Z"/><path d="m344.8,288.53c0,1.05.02,1.97.08,2.77h-1.64l-.1-1.66h-.04c-.48.82-1.55,1.89-3.36,1.89-1.6,0-3.51-.88-3.51-4.45v-5.94h1.85v5.63c0,1.93.59,3.23,2.27,3.23,1.24,0,2.1-.86,2.44-1.68.11-.27.17-.61.17-.94v-6.24h1.85v7.39Z"/><path d="m347.78,291.3c.04-.69.08-1.72.08-2.62v-12.28h1.83v6.38h.04c.65-1.13,1.83-1.87,3.46-1.87,2.52,0,4.3,2.1,4.28,5.19,0,3.63-2.29,5.44-4.56,5.44-1.47,0-2.65-.57-3.4-1.91h-.06l-.08,1.68h-1.6Zm1.91-4.07c0,.23.04.46.08.67.36,1.28,1.43,2.16,2.77,2.16,1.93,0,3.09-1.57,3.09-3.91,0-2.04-1.05-3.78-3.02-3.78-1.26,0-2.44.86-2.81,2.27-.04.21-.1.46-.1.76v1.83Z"/><path d="m359.82,276.39h1.85v14.91h-1.85v-14.91Z"/><path d="m366.83,278.28c.02.63-.44,1.13-1.18,1.13-.65,0-1.11-.5-1.11-1.13s.48-1.15,1.16-1.15,1.13.5,1.13,1.15Zm-2.06,13.02v-10.16h1.85v10.16h-1.85Z"/><path d="m369.43,289.41c.55.36,1.51.73,2.44.73,1.34,0,1.97-.67,1.97-1.51,0-.88-.53-1.36-1.89-1.87-1.83-.65-2.69-1.66-2.69-2.88,0-1.64,1.32-2.98,3.51-2.98,1.03,0,1.93.29,2.5.63l-.46,1.34c-.4-.25-1.13-.59-2.08-.59-1.09,0-1.7.63-1.7,1.39,0,.84.61,1.22,1.93,1.72,1.76.67,2.67,1.55,2.67,3.07,0,1.78-1.39,3.04-3.8,3.04-1.11,0-2.14-.27-2.86-.69l.46-1.41Z"/><path d="m378,276.39h1.85v6.34h.04c.29-.52.76-.99,1.32-1.3.55-.31,1.2-.52,1.89-.52,1.36,0,3.55.84,3.55,4.35v6.05h-1.85v-5.84c0-1.64-.61-3.02-2.35-3.02-1.2,0-2.14.84-2.48,1.85-.1.25-.13.52-.13.88v6.13h-1.85v-14.91Z"/><path d="m390.68,286.56c.04,2.5,1.64,3.53,3.49,3.53,1.32,0,2.12-.23,2.81-.52l.32,1.32c-.65.29-1.76.63-3.38.63-3.13,0-5-2.06-5-5.12s1.81-5.48,4.77-5.48c3.32,0,4.2,2.92,4.2,4.79,0,.38-.04.67-.06.86h-7.14Zm5.42-1.32c.02-1.18-.48-3-2.56-3-1.87,0-2.69,1.72-2.83,3h5.4Z"/><path d="m400.18,284.31c0-1.2-.02-2.23-.08-3.17h1.62l.06,1.99h.08c.46-1.36,1.58-2.23,2.81-2.23.21,0,.36.02.53.06v1.74c-.19-.04-.38-.06-.63-.06-1.3,0-2.23.99-2.48,2.37-.04.25-.08.55-.08.86v5.42h-1.83v-6.99Z"/><path d="m409.94,292.14l5.86-15.22h1.43l-5.88,15.22h-1.41Z"/><path d="m425.04,277.15v14.15h-1.83v-14.15h1.83Z"/><path d="m427.98,289.08c.82.5,2.02.92,3.28.92,1.87,0,2.96-.99,2.96-2.41,0-1.32-.76-2.08-2.67-2.81-2.31-.82-3.74-2.02-3.74-4.01,0-2.2,1.83-3.84,4.58-3.84,1.45,0,2.5.34,3.13.69l-.5,1.49c-.46-.25-1.41-.67-2.69-.67-1.93,0-2.67,1.15-2.67,2.12,0,1.32.86,1.97,2.81,2.73,2.39.92,3.61,2.08,3.61,4.16,0,2.18-1.62,4.07-4.96,4.07-1.36,0-2.86-.4-3.61-.9l.46-1.53Z"/><path d="m441.69,291.3l-4.62-14.15h1.97l2.2,6.97c.61,1.91,1.13,3.63,1.51,5.29h.04c.4-1.64.99-3.42,1.62-5.27l2.39-6.99h1.95l-5.06,14.15h-2.02Z"/></g><g><rect class="e" x="181.48" y="7.02" width="141.04" height="93.96"/><path d="m321.04,8.5v91h-138.07V8.5h138.07m2.96-2.96h-144v96.92h144V5.54h0Z"/></g><g><path d="m230.44,26.4l-1.47,4.45h-1.89l4.81-14.15h2.21l4.83,14.15h-1.95l-1.51-4.45h-5.02Zm4.64-1.43l-1.39-4.07c-.31-.92-.52-1.76-.73-2.58h-.04c-.21.84-.44,1.7-.71,2.56l-1.39,4.09h4.26Z"/><path d="m240.08,29.78l4.6-5.98c.44-.55.86-1.03,1.32-1.57v-.04h-5.5v-1.49h7.75l-.02,1.15-4.54,5.9c-.42.57-.84,1.07-1.3,1.6v.04h5.94v1.47h-8.25v-1.07Z"/><path d="m258.73,28.08c0,1.05.02,1.97.08,2.77h-1.64l-.1-1.66h-.04c-.48.82-1.55,1.89-3.36,1.89-1.6,0-3.51-.88-3.51-4.45v-5.94h1.85v5.63c0,1.93.59,3.23,2.27,3.23,1.24,0,2.1-.86,2.44-1.68.11-.27.17-.61.17-.94v-6.24h1.85v7.39Z"/><path d="m261.79,23.86c0-1.2-.02-2.23-.08-3.17h1.62l.06,1.99h.08c.46-1.36,1.58-2.23,2.81-2.23.21,0,.36.02.53.06v1.74c-.19-.04-.38-.06-.63-.06-1.3,0-2.23.99-2.48,2.37-.04.25-.08.55-.08.86v5.42h-1.83v-6.99Z"/><path d="m269.48,26.11c.04,2.5,1.64,3.53,3.49,3.53,1.32,0,2.12-.23,2.81-.52l.32,1.32c-.65.29-1.76.63-3.38.63-3.13,0-5-2.06-5-5.12s1.81-5.48,4.77-5.48c3.32,0,4.2,2.92,4.2,4.79,0,.38-.04.67-.06.86h-7.14Zm5.42-1.32c.02-1.18-.48-3-2.56-3-1.87,0-2.69,1.72-2.83,3h5.4Z"/><path d="m211.4,49.84c-.1-1.97-.23-4.35-.21-6.11h-.06c-.48,1.66-1.07,3.42-1.79,5.38l-2.5,6.87h-1.39l-2.29-6.74c-.67-1.99-1.24-3.82-1.64-5.5h-.04c-.04,1.76-.15,4.14-.27,6.26l-.38,6.07h-1.74l.99-14.15h2.33l2.42,6.84c.59,1.74,1.07,3.3,1.43,4.77h.06c.36-1.43.86-2.98,1.49-4.77l2.52-6.84h2.33l.88,14.15h-1.78l-.36-6.21Z"/><path d="m222.05,56.05l-.15-1.28h-.06c-.57.8-1.66,1.51-3.11,1.51-2.06,0-3.11-1.45-3.11-2.92,0-2.46,2.18-3.8,6.11-3.78v-.21c0-.84-.23-2.35-2.31-2.35-.94,0-1.93.29-2.65.76l-.42-1.22c.84-.55,2.06-.9,3.34-.9,3.11,0,3.86,2.12,3.86,4.16v3.8c0,.88.04,1.74.17,2.44h-1.68Zm-.27-5.19c-2.02-.04-4.3.31-4.3,2.29,0,1.2.8,1.76,1.74,1.76,1.32,0,2.16-.84,2.46-1.7.06-.19.1-.4.1-.59v-1.76Z"/><path d="m226.55,49.06c0-1.2-.02-2.23-.08-3.17h1.62l.06,1.99h.08c.46-1.36,1.57-2.23,2.81-2.23.21,0,.36.02.52.06v1.74c-.19-.04-.38-.06-.63-.06-1.3,0-2.23.99-2.48,2.37-.04.25-.08.55-.08.86v5.42h-1.83v-6.99Z"/><path d="m235.32,50.55h.04c.25-.36.61-.8.9-1.15l2.98-3.51h2.23l-3.93,4.18,4.47,5.98h-2.25l-3.51-4.87-.94,1.05v3.82h-1.83v-14.91h1.83v9.41Z"/><path d="m244.38,51.31c.04,2.5,1.64,3.53,3.49,3.53,1.32,0,2.12-.23,2.81-.52l.32,1.32c-.65.29-1.76.63-3.38.63-3.13,0-5-2.06-5-5.12s1.81-5.48,4.77-5.48c3.32,0,4.2,2.92,4.2,4.79,0,.38-.04.67-.06.86h-7.14Zm5.42-1.32c.02-1.18-.48-3-2.56-3-1.87,0-2.69,1.72-2.83,3h5.4Z"/><path d="m256.09,42.97v2.92h2.65v1.41h-2.65v5.48c0,1.26.36,1.97,1.39,1.97.48,0,.84-.06,1.07-.13l.08,1.39c-.36.15-.92.25-1.64.25-.86,0-1.55-.27-2-.78-.52-.55-.71-1.45-.71-2.65v-5.54h-1.57v-1.41h1.57v-2.44l1.81-.48Z"/><path d="m260.82,49.21c0-1.3-.04-2.35-.08-3.32h1.66l.08,1.74h.04c.76-1.24,1.95-1.97,3.61-1.97,2.46,0,4.3,2.08,4.3,5.17,0,3.65-2.23,5.46-4.62,5.46-1.34,0-2.52-.59-3.13-1.6h-.04v5.52h-1.83v-11Zm1.83,2.71c0,.27.04.52.08.76.34,1.28,1.45,2.16,2.77,2.16,1.95,0,3.09-1.6,3.09-3.93,0-2.04-1.07-3.78-3.02-3.78-1.26,0-2.44.9-2.79,2.29-.06.23-.13.5-.13.76v1.74Z"/><path d="m272.77,41.15h1.85v14.91h-1.85v-14.91Z"/><path d="m283.35,56.05l-.15-1.28h-.06c-.57.8-1.66,1.51-3.11,1.51-2.06,0-3.11-1.45-3.11-2.92,0-2.46,2.18-3.8,6.11-3.78v-.21c0-.84-.23-2.35-2.31-2.35-.95,0-1.93.29-2.65.76l-.42-1.22c.84-.55,2.06-.9,3.34-.9,3.11,0,3.86,2.12,3.86,4.16v3.8c0,.88.04,1.74.17,2.44h-1.68Zm-.27-5.19c-2.02-.04-4.3.31-4.3,2.29,0,1.2.8,1.76,1.74,1.76,1.32,0,2.16-.84,2.46-1.7.06-.19.11-.4.11-.59v-1.76Z"/><path d="m295.09,55.68c-.48.25-1.55.59-2.92.59-3.07,0-5.06-2.08-5.06-5.19s2.14-5.4,5.46-5.4c1.09,0,2.06.27,2.56.52l-.42,1.43c-.44-.25-1.13-.48-2.14-.48-2.33,0-3.59,1.72-3.59,3.84,0,2.35,1.51,3.8,3.53,3.8,1.05,0,1.74-.27,2.27-.5l.32,1.39Z"/><path d="m298.16,51.31c.04,2.5,1.64,3.53,3.49,3.53,1.32,0,2.12-.23,2.81-.52l.32,1.32c-.65.29-1.76.63-3.38.63-3.13,0-5-2.06-5-5.12s1.81-5.48,4.77-5.48c3.32,0,4.2,2.92,4.2,4.79,0,.38-.04.67-.06.86h-7.14Zm5.42-1.32c.02-1.18-.48-3-2.56-3-1.87,0-2.69,1.72-2.83,3h5.4Z"/></g><g><rect class="e" x="7.02" y="153.79" width="165.96" height="69.04"/><path d="m171.5,155.27v66.07H8.5v-66.07h163m2.96-2.96H5.54v72h168.92v-72h0Z"/></g><g><g><path class="e" d="m41.45,176.95c-.11-1.97-.23-4.35-.21-6.11h-.06c-.48,1.66-1.07,3.42-1.78,5.38l-2.5,6.87h-1.39l-2.29-6.74c-.67-1.99-1.24-3.82-1.64-5.5h-.04c-.04,1.76-.15,4.14-.27,6.26l-.38,6.07h-1.74l.99-14.15h2.33l2.41,6.84c.59,1.74,1.07,3.3,1.43,4.77h.06c.36-1.43.86-2.98,1.49-4.77l2.52-6.84h2.33l.88,14.15h-1.79l-.36-6.21Z"/><path class="e" d="m52.09,183.16l-.15-1.28h-.06c-.57.8-1.66,1.51-3.11,1.51-2.06,0-3.11-1.45-3.11-2.92,0-2.46,2.18-3.8,6.11-3.78v-.21c0-.84-.23-2.35-2.31-2.35-.95,0-1.93.29-2.65.76l-.42-1.22c.84-.55,2.06-.9,3.34-.9,3.11,0,3.86,2.12,3.86,4.16v3.8c0,.88.04,1.74.17,2.44h-1.68Zm-.27-5.19c-2.02-.04-4.3.31-4.3,2.29,0,1.2.8,1.76,1.74,1.76,1.32,0,2.16-.84,2.46-1.7.06-.19.11-.4.11-.59v-1.76Z"/><path class="e" d="m56.59,175.75c0-1.05-.02-1.91-.08-2.75h1.64l.11,1.68h.04c.5-.97,1.68-1.91,3.36-1.91,1.41,0,3.59.84,3.59,4.33v6.07h-1.85v-5.86c0-1.64-.61-3-2.35-3-1.22,0-2.16.86-2.48,1.89-.08.23-.13.55-.13.86v6.11h-1.85v-7.41Z"/><path class="e" d="m73.87,183.16l-.15-1.28h-.06c-.57.8-1.66,1.51-3.11,1.51-2.06,0-3.11-1.45-3.11-2.92,0-2.46,2.18-3.8,6.11-3.78v-.21c0-.84-.23-2.35-2.31-2.35-.94,0-1.93.29-2.65.76l-.42-1.22c.84-.55,2.06-.9,3.34-.9,3.11,0,3.86,2.12,3.86,4.16v3.8c0,.88.04,1.74.17,2.44h-1.68Zm-.27-5.19c-2.02-.04-4.3.31-4.3,2.29,0,1.2.8,1.76,1.74,1.76,1.32,0,2.16-.84,2.46-1.7.06-.19.1-.4.1-.59v-1.76Z"/><path class="e" d="m87.12,173c-.04.73-.08,1.55-.08,2.79v5.9c0,2.33-.46,3.76-1.45,4.64-.99.92-2.42,1.22-3.7,1.22s-2.56-.29-3.38-.84l.46-1.41c.67.42,1.72.8,2.98.8,1.89,0,3.28-.99,3.28-3.55v-1.13h-.04c-.57.94-1.66,1.7-3.23,1.7-2.52,0-4.33-2.14-4.33-4.96,0-3.44,2.25-5.4,4.58-5.4,1.76,0,2.73.92,3.17,1.76h.04l.08-1.53h1.62Zm-1.91,4.01c0-.31-.02-.59-.11-.84-.34-1.07-1.24-1.95-2.58-1.95-1.76,0-3.02,1.49-3.02,3.84,0,1.99,1.01,3.65,3,3.65,1.13,0,2.16-.71,2.56-1.89.11-.31.15-.67.15-.99v-1.83Z"/><path class="e" d="m91.13,178.42c.04,2.5,1.64,3.53,3.49,3.53,1.32,0,2.12-.23,2.81-.52l.31,1.32c-.65.29-1.76.63-3.38.63-3.13,0-5-2.06-5-5.12s1.81-5.48,4.77-5.48c3.32,0,4.2,2.92,4.2,4.79,0,.38-.04.67-.06.86h-7.14Zm5.42-1.32c.02-1.18-.48-3-2.56-3-1.87,0-2.69,1.72-2.83,3h5.4Z"/><path class="e" d="m109.4,168.26v12.28c0,.9.02,1.93.08,2.62h-1.66l-.08-1.76h-.04c-.57,1.13-1.81,1.99-3.46,1.99-2.46,0-4.35-2.08-4.35-5.17-.02-3.38,2.08-5.46,4.56-5.46,1.55,0,2.6.73,3.07,1.55h.04v-6.07h1.85Zm-1.85,8.88c0-.23-.02-.55-.08-.78-.27-1.18-1.28-2.14-2.67-2.14-1.91,0-3.04,1.68-3.04,3.93,0,2.06,1.01,3.76,3,3.76,1.24,0,2.37-.82,2.71-2.2.06-.25.08-.5.08-.8v-1.76Z"/><path class="e" d="m119.27,178.71l-1.47,4.45h-1.89l4.81-14.15h2.2l4.83,14.15h-1.95l-1.51-4.45h-5.02Zm4.64-1.43l-1.39-4.07c-.32-.92-.53-1.76-.74-2.58h-.04c-.21.84-.44,1.7-.71,2.56l-1.39,4.09h4.26Z"/><path class="e" d="m129.71,176.32c0-1.3-.04-2.35-.08-3.32h1.66l.08,1.74h.04c.76-1.24,1.95-1.97,3.61-1.97,2.46,0,4.3,2.08,4.3,5.17,0,3.65-2.23,5.46-4.62,5.46-1.34,0-2.52-.59-3.13-1.6h-.04v5.52h-1.83v-11Zm1.83,2.71c0,.27.04.52.08.76.34,1.28,1.45,2.16,2.77,2.16,1.95,0,3.09-1.6,3.09-3.93,0-2.04-1.07-3.78-3.02-3.78-1.26,0-2.44.9-2.79,2.29-.06.23-.13.5-.13.76v1.74Z"/><path class="e" d="m141.66,176.32c0-1.3-.04-2.35-.08-3.32h1.66l.08,1.74h.04c.76-1.24,1.95-1.97,3.61-1.97,2.46,0,4.3,2.08,4.3,5.17,0,3.65-2.23,5.46-4.62,5.46-1.34,0-2.52-.59-3.13-1.6h-.04v5.52h-1.83v-11Zm1.83,2.71c0,.27.04.52.08.76.34,1.28,1.45,2.16,2.77,2.16,1.95,0,3.09-1.6,3.09-3.93,0-2.04-1.07-3.78-3.02-3.78-1.26,0-2.44.9-2.79,2.29-.06.23-.13.5-.13.76v1.74Z"/><path class="e" d="m32.77,194.4c1.11-.17,2.44-.29,3.88-.29,2.62,0,4.49.61,5.73,1.76,1.26,1.15,1.99,2.79,1.99,5.08s-.71,4.2-2.04,5.5c-1.32,1.32-3.51,2.04-6.26,2.04-1.3,0-2.39-.06-3.32-.17v-13.92Zm1.83,12.51c.46.08,1.13.1,1.85.1,3.91,0,6.03-2.18,6.03-6,.02-3.34-1.87-5.46-5.73-5.46-.94,0-1.66.08-2.14.19v11.17Z"/><path class="e" d="m47.81,203.62c.04,2.5,1.64,3.53,3.49,3.53,1.32,0,2.12-.23,2.81-.52l.32,1.32c-.65.29-1.76.63-3.38.63-3.13,0-5-2.06-5-5.12s1.81-5.48,4.77-5.48c3.32,0,4.2,2.92,4.2,4.79,0,.38-.04.67-.06.86h-7.14Zm5.42-1.32c.02-1.18-.48-3-2.56-3-1.87,0-2.69,1.72-2.83,3h5.4Z"/><path class="e" d="m57.3,201.52c0-1.3-.04-2.35-.08-3.32h1.66l.08,1.74h.04c.76-1.24,1.95-1.97,3.61-1.97,2.46,0,4.3,2.08,4.3,5.17,0,3.65-2.23,5.46-4.62,5.46-1.34,0-2.52-.59-3.13-1.6h-.04v5.52h-1.83v-11Zm1.83,2.71c0,.27.04.52.08.76.34,1.28,1.45,2.16,2.77,2.16,1.95,0,3.09-1.6,3.09-3.93,0-2.04-1.07-3.78-3.02-3.78-1.26,0-2.44.9-2.79,2.29-.06.23-.13.5-.13.76v1.74Z"/><path class="e" d="m69.25,193.46h1.85v14.91h-1.85v-14.91Z"/><path class="e" d="m83.4,203.2c0,3.76-2.6,5.4-5.06,5.4-2.75,0-4.87-2.02-4.87-5.23,0-3.4,2.23-5.4,5.04-5.4s4.89,2.12,4.89,5.23Zm-8.06.1c0,2.23,1.28,3.91,3.09,3.91s3.09-1.66,3.09-3.95c0-1.72-.86-3.91-3.04-3.91s-3.13,2.02-3.13,3.95Z"/><path class="e" d="m86.26,198.2l2.23,6c.23.67.48,1.47.65,2.08h.04c.19-.61.4-1.39.65-2.12l2.02-5.96h1.95l-2.77,7.24c-1.32,3.49-2.23,5.27-3.49,6.36-.9.8-1.81,1.11-2.27,1.2l-.46-1.55c.46-.15,1.07-.44,1.62-.9.5-.4,1.13-1.11,1.55-2.06.08-.19.15-.34.15-.44s-.04-.25-.13-.48l-3.76-9.36h2.02Z"/><path class="e" d="m95.48,200.95c0-1.05-.02-1.91-.08-2.75h1.62l.08,1.64h.06c.57-.97,1.51-1.87,3.19-1.87,1.39,0,2.44.84,2.88,2.04h.04c.32-.57.71-1.01,1.13-1.32.61-.46,1.28-.71,2.25-.71,1.34,0,3.34.88,3.34,4.41v5.98h-1.81v-5.75c0-1.95-.71-3.13-2.2-3.13-1.05,0-1.87.78-2.18,1.68-.08.25-.15.59-.15.92v6.28h-1.81v-6.09c0-1.62-.71-2.79-2.12-2.79-1.16,0-2,.92-2.29,1.85-.1.27-.15.59-.15.9v6.13h-1.81v-7.41Z"/><path class="e" d="m114.02,203.62c.04,2.5,1.64,3.53,3.49,3.53,1.32,0,2.12-.23,2.81-.52l.31,1.32c-.65.29-1.76.63-3.38.63-3.13,0-5-2.06-5-5.12s1.81-5.48,4.77-5.48c3.32,0,4.2,2.92,4.2,4.79,0,.38-.04.67-.06.86h-7.14Zm5.42-1.32c.02-1.18-.48-3-2.56-3-1.87,0-2.69,1.72-2.83,3h5.4Z"/><path class="e" d="m123.51,200.95c0-1.05-.02-1.91-.08-2.75h1.64l.1,1.68h.04c.5-.97,1.68-1.91,3.36-1.91,1.41,0,3.59.84,3.59,4.33v6.07h-1.85v-5.86c0-1.64-.61-3-2.35-3-1.22,0-2.16.86-2.48,1.89-.08.23-.13.55-.13.86v6.11h-1.85v-7.41Z"/><path class="e" d="m137.31,195.28v2.92h2.65v1.41h-2.65v5.48c0,1.26.36,1.97,1.39,1.97.48,0,.84-.06,1.07-.13l.08,1.39c-.36.15-.92.25-1.64.25-.86,0-1.55-.27-2-.78-.52-.55-.71-1.45-.71-2.65v-5.54h-1.57v-1.41h1.57v-2.44l1.81-.48Z"/><path class="e" d="m141.78,206.47c.55.36,1.51.73,2.44.73,1.34,0,1.97-.67,1.97-1.51,0-.88-.53-1.36-1.89-1.87-1.83-.65-2.69-1.66-2.69-2.88,0-1.64,1.32-2.98,3.51-2.98,1.03,0,1.93.29,2.5.63l-.46,1.34c-.4-.25-1.13-.59-2.08-.59-1.09,0-1.7.63-1.7,1.39,0,.84.61,1.22,1.93,1.72,1.76.67,2.67,1.55,2.67,3.07,0,1.78-1.39,3.04-3.8,3.04-1.11,0-2.14-.27-2.86-.69l.46-1.41Z"/></g><g><path d="m42.7,169.01h-2.33l-2.52,6.84c-.63,1.78-1.13,3.34-1.49,4.77h-.06c-.36-1.47-.84-3.02-1.43-4.77l-2.41-6.84h-2.33l-.99,14.15h1.74l.38-6.07c.13-2.12.23-4.49.27-6.26h.04c.4,1.68.97,3.51,1.64,5.5l2.29,6.74h1.39l2.5-6.87c.71-1.95,1.3-3.72,1.78-5.38h.06c-.02,1.76.1,4.14.21,6.11l.36,6.21h1.79l-.88-14.15h0Z"/><path d="m49.74,172.77c-1.28,0-2.5.36-3.34.9l.42,1.22c.71-.46,1.7-.76,2.65-.76,2.08,0,2.31,1.51,2.31,2.35v.21s-.06,0-.09,0c-3.87,0-6.02,1.34-6.02,3.78,0,1.47,1.05,2.92,3.11,2.92,1.45,0,2.54-.71,3.11-1.51h.06l.15,1.28h1.68c-.13-.69-.17-1.55-.17-2.44v-3.8c0-2.04-.76-4.16-3.86-4.16h0Zm-.48,9.26c-.95,0-1.74-.57-1.74-1.76,0-1.88,2.07-2.29,4.01-2.29.1,0,.2,0,.3,0v1.76c0,.19-.04.4-.11.59-.29.86-1.13,1.7-2.46,1.7h0Z"/><path d="m61.65,172.77c-1.68,0-2.86.94-3.36,1.91h-.04l-.11-1.68h-1.64c.06.84.08,1.7.08,2.75v7.41h1.85v-6.11c0-.31.04-.63.13-.86.32-1.03,1.26-1.89,2.48-1.89,1.74,0,2.35,1.36,2.35,3v5.86h1.85v-6.07c0-3.49-2.18-4.33-3.59-4.33h0Z"/><path d="m71.52,172.77c-1.28,0-2.5.36-3.34.9l.42,1.22c.71-.46,1.7-.76,2.65-.76,2.08,0,2.31,1.51,2.31,2.35v.21s-.06,0-.09,0c-3.87,0-6.02,1.34-6.02,3.78,0,1.47,1.05,2.92,3.11,2.92,1.45,0,2.54-.71,3.11-1.51h.06l.15,1.28h1.68c-.13-.69-.17-1.55-.17-2.44v-3.8c0-2.04-.76-4.16-3.86-4.16h0Zm-.48,9.26c-.94,0-1.74-.57-1.74-1.76,0-1.88,2.07-2.29,4.01-2.29.1,0,.2,0,.3,0v1.76c0,.19-.04.4-.1.59-.29.86-1.13,1.7-2.46,1.7h0Z"/><path d="m82.21,172.77c-2.33,0-4.58,1.95-4.58,5.4,0,2.81,1.81,4.96,4.33,4.96,1.58,0,2.67-.76,3.23-1.7h.04v1.13c0,2.56-1.39,3.55-3.28,3.55-1.26,0-2.31-.38-2.98-.8l-.46,1.41c.82.55,2.16.84,3.38.84,1.28,0,2.71-.29,3.7-1.22.99-.88,1.45-2.31,1.45-4.64v-5.9c0-1.24.04-2.06.08-2.79h-1.62l-.08,1.53h-.04c-.44-.84-1.41-1.76-3.17-1.76h0Zm.29,8.94c-1.99,0-3-1.66-3-3.65,0-2.35,1.26-3.84,3.02-3.84,1.34,0,2.25.88,2.58,1.95.08.25.11.52.11.84v1.83c0,.31-.04.67-.15.99-.4,1.18-1.43,1.89-2.56,1.89h0Z"/><path d="m94.13,172.77c-2.96,0-4.77,2.41-4.77,5.48s1.87,5.12,5,5.12c1.62,0,2.73-.34,3.38-.63l-.31-1.32c-.69.29-1.49.52-2.81.52-1.85,0-3.44-1.03-3.49-3.53h7.14c.02-.19.06-.48.06-.86,0-1.87-.88-4.79-4.2-4.79h0Zm-2.98,4.33c.15-1.28.97-3,2.83-3,2.08,0,2.58,1.83,2.56,3h-5.4Z"/><path d="m109.4,168.26h-1.85v6.07h-.04c-.46-.82-1.51-1.55-3.07-1.55-2.48,0-4.58,2.08-4.56,5.46,0,3.09,1.89,5.17,4.35,5.17,1.66,0,2.9-.86,3.46-1.99h.04l.08,1.76h1.66c-.06-.69-.08-1.72-.08-2.62v-12.28h0Zm-4.64,13.65c-1.99,0-3-1.7-3-3.76,0-2.25,1.13-3.93,3.04-3.93,1.39,0,2.39.97,2.67,2.14.06.23.08.55.08.78v1.76c0,.29-.02.55-.08.8-.34,1.39-1.47,2.2-2.71,2.2h0Z"/><path d="m122.92,169.01h-2.2l-4.81,14.15h1.89l1.47-4.45h5.02l1.51,4.45h1.95l-4.83-14.15h0Zm-3.28,8.27l1.39-4.09c.27-.86.5-1.72.71-2.56h.04c.21.82.42,1.66.74,2.58l1.39,4.07h-4.26Z"/><path d="m135.02,172.77c-1.66,0-2.86.73-3.61,1.97h-.04l-.08-1.74h-1.66c.04.97.08,2.02.08,3.32v11h1.83v-5.52h.04c.61,1.01,1.78,1.6,3.13,1.6,2.39,0,4.62-1.81,4.62-5.46,0-3.09-1.85-5.17-4.3-5.17h0Zm-.63,9.18c-1.32,0-2.44-.88-2.77-2.16-.04-.23-.08-.48-.08-.76v-1.74c0-.25.06-.52.13-.76.36-1.39,1.53-2.29,2.79-2.29,1.95,0,3.02,1.74,3.02,3.78,0,2.33-1.13,3.93-3.09,3.93h0Z"/><path d="m146.97,172.77c-1.66,0-2.86.73-3.61,1.97h-.04l-.08-1.74h-1.66c.04.97.08,2.02.08,3.32v11h1.83v-5.52h.04c.61,1.01,1.79,1.6,3.13,1.6,2.39,0,4.62-1.81,4.62-5.46,0-3.09-1.85-5.17-4.3-5.17h0Zm-.63,9.18c-1.32,0-2.44-.88-2.77-2.16-.04-.23-.08-.48-.08-.76v-1.74c0-.25.06-.52.13-.76.36-1.39,1.53-2.29,2.79-2.29,1.95,0,3.02,1.74,3.02,3.78,0,2.33-1.13,3.93-3.09,3.93h0Z"/><path d="m36.66,194.11c-1.45,0-2.77.13-3.88.29v13.92c.92.1,2.02.17,3.32.17,2.75,0,4.93-.71,6.26-2.04,1.32-1.3,2.04-3.19,2.04-5.5s-.73-3.93-1.99-5.08c-1.24-1.15-3.11-1.76-5.73-1.76h0Zm-.21,12.91c-.71,0-1.39-.02-1.85-.1v-11.17c.48-.1,1.2-.19,2.14-.19,3.86,0,5.75,2.12,5.73,5.46,0,3.82-2.12,6-6.03,6h0Z"/><path d="m50.81,197.97c-2.96,0-4.77,2.41-4.77,5.48s1.87,5.12,5,5.12c1.62,0,2.73-.34,3.38-.63l-.32-1.32c-.69.29-1.49.52-2.81.52-1.85,0-3.44-1.03-3.49-3.53h7.14c.02-.19.06-.48.06-.86,0-1.87-.88-4.79-4.2-4.79h0Zm-2.98,4.33c.15-1.28.97-3,2.83-3,2.08,0,2.58,1.83,2.56,3h-5.4Z"/><path d="m62.61,197.97c-1.66,0-2.86.73-3.61,1.97h-.04l-.08-1.74h-1.66c.04.97.08,2.02.08,3.32v11h1.83v-5.52h.04c.61,1.01,1.78,1.6,3.13,1.6,2.39,0,4.62-1.81,4.62-5.46,0-3.09-1.85-5.17-4.3-5.17h0Zm-.63,9.18c-1.32,0-2.44-.88-2.77-2.16-.04-.23-.08-.48-.08-.76v-1.74c0-.25.06-.52.13-.76.36-1.39,1.53-2.29,2.79-2.29,1.95,0,3.02,1.74,3.02,3.78,0,2.33-1.13,3.93-3.09,3.93h0Z"/><polygon points="71.1 193.46 69.25 193.46 69.25 208.36 71.1 208.36 71.1 193.46 71.1 193.46"/><path d="m78.51,197.97c-2.81,0-5.04,1.99-5.04,5.4,0,3.21,2.12,5.23,4.87,5.23,2.46,0,5.06-1.64,5.06-5.4,0-3.11-1.97-5.23-4.89-5.23h0Zm-.08,9.24c-1.81,0-3.09-1.68-3.09-3.91,0-1.93.94-3.95,3.13-3.95s3.04,2.18,3.04,3.91c0,2.29-1.32,3.95-3.09,3.95h0Z"/><path d="m93.8,198.2h-1.95l-2.02,5.96c-.25.73-.46,1.51-.65,2.12h-.04c-.17-.61-.42-1.41-.65-2.08l-2.23-6h-2.02l3.76,9.36c.08.23.13.38.13.48s-.06.25-.15.44c-.42.94-1.05,1.66-1.55,2.06-.55.46-1.16.76-1.62.9l.46,1.55c.46-.08,1.37-.4,2.27-1.2,1.26-1.09,2.16-2.88,3.49-6.36l2.77-7.24h0Z"/><path d="m106.65,197.97c-.97,0-1.64.25-2.25.71-.42.31-.82.76-1.13,1.32h-.04c-.44-1.2-1.49-2.04-2.88-2.04-1.68,0-2.62.9-3.19,1.87h-.06l-.08-1.64h-1.62c.06.84.08,1.7.08,2.75v7.41h1.81v-6.13c0-.31.04-.63.15-.9.29-.92,1.13-1.85,2.29-1.85,1.41,0,2.12,1.18,2.12,2.79v6.09h1.81v-6.28c0-.34.06-.67.15-.92.31-.9,1.13-1.68,2.18-1.68,1.49,0,2.2,1.18,2.2,3.13v5.75h1.81v-5.98c0-3.53-1.99-4.41-3.34-4.41h0Z"/><path d="m117.02,197.97c-2.96,0-4.77,2.41-4.77,5.48s1.87,5.12,5,5.12c1.62,0,2.73-.34,3.38-.63l-.31-1.32c-.69.29-1.49.52-2.81.52-1.85,0-3.44-1.03-3.49-3.53h7.14c.02-.19.06-.48.06-.86,0-1.87-.88-4.79-4.2-4.79h0Zm-2.98,4.33c.15-1.28.97-3,2.83-3,2.08,0,2.58,1.83,2.56,3h-5.4Z"/><path d="m128.57,197.97c-1.68,0-2.86.94-3.36,1.91h-.04l-.1-1.68h-1.64c.06.84.08,1.7.08,2.75v7.41h1.85v-6.11c0-.31.04-.63.13-.86.31-1.03,1.26-1.89,2.48-1.89,1.74,0,2.35,1.36,2.35,3v5.86h1.85v-6.07c0-3.49-2.18-4.33-3.59-4.33h0Z"/><path d="m137.31,195.28l-1.81.48v2.44h-1.57v1.41h1.57v5.54c0,1.2.19,2.1.71,2.65.44.5,1.13.78,2,.78.71,0,1.28-.1,1.64-.25l-.08-1.39c-.23.06-.59.13-1.07.13-1.03,0-1.39-.71-1.39-1.97v-5.48h2.65v-1.41h-2.65v-2.92h0Z"/><path d="m145.12,197.97c-2.18,0-3.51,1.34-3.51,2.98,0,1.22.86,2.23,2.69,2.88,1.36.5,1.89.99,1.89,1.87s-.63,1.51-1.97,1.51c-.92,0-1.89-.38-2.44-.73l-.46,1.41c.71.42,1.74.69,2.86.69,2.41,0,3.8-1.26,3.8-3.04,0-1.51-.9-2.39-2.67-3.07-1.32-.5-1.93-.88-1.93-1.72,0-.76.61-1.39,1.7-1.39.95,0,1.68.34,2.08.59l.46-1.34c-.57-.34-1.47-.63-2.5-.63h0Z"/></g></g><g><path class="g" d="m300.4,73.15h-2.33v21.01h-32.66v-21.01h-2.33v-11.67h37.33v11.67Zm-4.67,0h-28v18.67h28v-18.67Zm2.33-9.34h-32.66v7h32.66v-7Zm-16.33,21.01h-11.66v-2.33h11.66v2.33Zm-11.66,4.67v-2.33h9.33v2.33h-9.33Z"/><path class="g" d="m290.82,75.32c-2.23,0-4.05,1.81-4.05,4.04,0,.75.2,1.45.56,2.05l-6.31,6.29v1.46h1.46s.69,0,.69,0v-1.44h-.05.01s1.51-.01,1.51-.01v-1.44h1.46v-1.5s1.45,0,1.45,0v-.04l1.65-1.65c.49.21,1.03.33,1.6.33,2.23,0,4.05-1.81,4.05-4.04s-1.81-4.04-4.05-4.04Zm1.47,3.69c-.6,0-1.09-.49-1.09-1.09s.49-1.09,1.09-1.09,1.09.49,1.09,1.09-.49,1.09-1.09,1.09Z"/></g><path class="g" d="m445.85,230.99h-2.33v21.01h-32.66v-21.01h-2.33v-11.67h37.33v11.67Zm-4.67,0h-28v18.67h28v-18.67Zm2.33-9.34h-32.66v7h32.66v-7Zm-16.33,21.01h-11.66v-2.33h11.66v2.33Zm-11.66,4.67v-2.33h9.33v2.33h-9.33Z"/><path class="g" d="m164.1,201.6c-2.23,0-4.05,1.81-4.05,4.04,0,.75.2,1.45.56,2.05l-6.31,6.29v1.46h1.46s.69,0,.69,0v-1.44h-.05.01s1.51-.01,1.51-.01v-1.44h1.46v-1.5s1.45,0,1.45,0v-.04l1.65-1.65c.49.21,1.03.33,1.6.33,2.23,0,4.05-1.81,4.05-4.04s-1.81-4.04-4.05-4.04Zm1.47,3.69c-.6,0-1.09-.49-1.09-1.09s.49-1.09,1.09-1.09,1.09.49,1.09,1.09-.49,1.09-1.09,1.09Z"/><path class="g" d="m367.03,227.08c-2.23,0-4.05,1.81-4.05,4.04,0,.75.2,1.45.56,2.05l-6.31,6.29v1.46h1.46s.69,0,.69,0v-1.44h-.05.01s1.51-.01,1.51-.01v-1.44h1.46v-1.5s1.45,0,1.45,0v-.04l1.65-1.65c.49.21,1.03.33,1.6.33,2.23,0,4.05-1.81,4.05-4.04s-1.81-4.04-4.05-4.04Zm1.47,3.69c-.6,0-1.09-.49-1.09-1.09s.49-1.09,1.09-1.09,1.09.49,1.09,1.09-.49,1.09-1.09,1.09Z"/><g><line class="f" x1="390.46" y1="174.46" x2="316.76" y2="110.58"/><polygon points="321.52 109.33 307.38 102.46 316.19 115.48 321.52 109.33"/></g><g><line class="f" x1="224.31" y1="102.46" x2="183.23" y2="143.54"/><polygon points="182.32 138.7 174.46 152.31 188.07 144.45 182.32 138.7"/></g><g><line class="f" x1="224.31" y1="102.46" x2="192.2" y2="152.92"/><polygon points="190.26 148.4 185.54 163.38 197.12 152.76 190.26 148.4"/></g><g><line class="f" x1="224.31" y1="102.46" x2="201.07" y2="162.89"/><polygon points="198.27 158.84 196.62 174.46 205.86 161.76 198.27 158.84"/></g><g><path class="f" d="m373.85,224.31s3.74-3.74,8.31-8.31,8.31-15.16,8.31-23.54v-2.83"/><polygon points="394.53 192.41 390.46 177.23 386.39 192.41 394.53 192.41"/></g><g><path class="f" d="m404.31,224.31s-3.12-3.74-6.92-8.31c-3.81-4.57-6.92-15.16-6.92-23.54v-2.83"/><polygon points="394.53 192.41 390.46 177.23 386.39 192.41 394.53 192.41"/></g></svg>